<svg xmlns="http://www.w3.org/2000/svg" xmlns:xlink="http://www.w3.org/1999/xlink" viewBox="0 0 6699.9 2711.3"><defs><style>.cls-1{fill:none;}.cls-2{fill:#ee7434;}.cls-3{fill:url(#New_Pattern_4);}</style><pattern id="New_Pattern_4" data-name="New Pattern 4" width="2000" height="2000" patternTransform="translate(-431.45 4127.92) scale(0.86)" patternUnits="userSpaceOnUse" viewBox="0 0 2000 2000"><rect class="cls-1" width="2000" height="2000"/><path class="cls-2" d="M1242.94,2021.9a41.91,41.91,0,1,0,63.58,53.88h0l99.91-151.47-156.34,92.11h0A41.76,41.76,0,0,0,1242.94,2021.9Z"/><path class="cls-2" d="M1384.61,1825.13a10.34,10.34,0,0,0-15,14.25,10.91,10.91,0,0,0,1.7,1.44h0l37.37,24.65L1386,1826.9h0A9.94,9.94,0,0,0,1384.61,1825.13Z"/><path class="cls-2" d="M1489.4,1965.39a10.34,10.34,0,0,0,15-14.25,10,10,0,0,0-1.7-1.43h0l-37.38-24.65,22.73,38.58h0A10.36,10.36,0,0,0,1489.4,1965.39Z"/><path class="cls-2" d="M1222,2017a36.38,36.38,0,0,1-1.24-66.67,36.85,36.85,0,0,1,7.43-2.48h0l154.31-31.75s-128.79,74.86-142.29,83.61S1222,2017,1222,2017Z"/><path class="cls-2" d="M1304.62,2103.94a36.37,36.37,0,0,0,69.38-2.68h0l39.53-152.5s-81.29,124.83-90.71,137.86S1304.64,2103.94,1304.62,2103.94Z"/><path class="cls-2" d="M1213,1899.18a32.59,32.59,0,0,1,38.9-32.66h0l138.12,29-158.75,32.31A32.59,32.59,0,0,1,1213,1899.18Z"/><path class="cls-2" d="M1421.32,2118.38a32.59,32.59,0,0,0,34.85-30.17,32.12,32.12,0,0,0-.25-7h0L1434,1941.78l-40.32,156.91A32.58,32.58,0,0,0,1421.32,2118.38Z"/><path class="cls-2" d="M1480,2061.86a20.16,20.16,0,0,0,15.12-24.18,20.68,20.68,0,0,0-1.42-4.1h0l-38.31-78.44,16.66,106.94A20,20,0,0,0,1480,2061.86Z"/><path class="cls-2" d="M1272.81,1843.84a20.16,20.16,0,0,1,24.91-13.87,20.38,20.38,0,0,1,4,1.63h0l76.39,42.23-106-22A19.94,19.94,0,0,1,1272.81,1843.84Z"/><circle class="cls-2" cx="1436.81" cy="1895.05" r="27.7"/><path class="cls-2" d="M571.88,1943.42a35.57,35.57,0,0,1,13-12.24,17.2,17.2,0,0,0-20.85,6.53h0a17.22,17.22,0,0,0,2.41,21.75A35.65,35.65,0,0,1,571.88,1943.42Z"/><path class="cls-2" d="M595.79,1958.45a52.56,52.56,0,0,1,22.26-19.14c-.28-.19-.53-.4-.82-.58a28.23,28.23,0,0,0-39,8.73h0a28.23,28.23,0,0,0,8.73,39l.2.11A52.64,52.64,0,0,1,595.79,1958.45Z"/><path class="cls-2" d="M633.83,1983.32a80.83,80.83,0,0,1,36.07-30.22,46.55,46.55,0,0,0-4.88-3.69h0a45.43,45.43,0,0,0-62.9,13.17h0a45.44,45.44,0,0,0,13.17,62.9h0a44.71,44.71,0,0,0,5.34,3A80.69,80.69,0,0,1,633.83,1983.32Z"/><path class="cls-2" d="M695.5,2023.63a126,126,0,0,1,58.41-48,74.38,74.38,0,0,0-11.77-9.55h0a73.68,73.68,0,0,0-102,21.35h0a73.67,73.67,0,0,0,21.35,102h0a74.22,74.22,0,0,0,13.47,7A125.87,125.87,0,0,1,695.5,2023.63Z"/><path class="cls-2" d="M740.47,2186.34l.17.11a111.47,111.47,0,0,0,22,11.12,200.44,200.44,0,0,1,119.14-182.23,111.78,111.78,0,0,0-19-15.67l-.17-.11a111.58,111.58,0,0,0-122.11,186.78Z"/><path class="cls-2" d="M134.74,1963.45l-.09-.09a73.62,73.62,0,0,0-12.86-9.74A130.17,130.17,0,0,1,88,2019.84a130.14,130.14,0,0,1-64.3,37.27,73.28,73.28,0,0,0,10.42,12.32l.09.09a73.06,73.06,0,0,0,100.5-106.07Z"/><path class="cls-2" d="M1708.12,1962.07l-48.95,79,79,49a92.91,92.91,0,1,0-30-127.93Z"/><path class="cls-2" d="M1661,2017l39.12-63.11c5.24-8.46,17.48-23.84,33.88-32.14,0,0-40.81-15.16-104.79,64.07Z"/><path class="cls-2" d="M1627,1932.82l9.31,27.84s37-36.49,51-42.27C1687.23,1918.39,1667,1914.66,1627,1932.82Z"/><path class="cls-2" d="M1998.56,806.89l-90,23.25,23.25,90a92.92,92.92,0,1,0,66.71-113.21Z"/><path class="cls-2" d="M1926.58,814l71.89-18.58c9.64-2.49,29.11-5.15,46.7.19,0,0-19-39.17-120-26.11Z"/><path class="cls-2" d="M1960.12,729.65l-12.51,26.56s52-.78,66.05,4.68C2013.66,760.89,2001.64,744.23,1960.12,729.65Z"/><path class="cls-2" d="M149.11,223.1a27.44,27.44,0,1,0-32.3,44h0L220.3,325.47,153,227.53h0A27,27,0,0,0,149.11,223.1Z"/><path class="cls-2" d="M284.1,306.69a6.77,6.77,0,1,0-10.86-8h0l-14.4,25.54L283,307.66h0A7.15,7.15,0,0,0,284.1,306.69Z"/><path class="cls-2" d="M197.24,381.53a6.77,6.77,0,0,0,10,9.14,7.32,7.32,0,0,0,.86-1.17h0L222.49,364l-24.16,16.6h0A6.64,6.64,0,0,0,197.24,381.53Z"/><path class="cls-2" d="M151.36,209.18a23.83,23.83,0,0,1,45.46.9h0l27.76,99.36s-54.75-80.73-61.08-89.15S151.37,209.19,151.36,209.18Z"/><path class="cls-2" d="M98.33,267.13a23.82,23.82,0,0,0,0,43.66,23.24,23.24,0,0,0,4.89,1.53h0l101.42,18.89s-85.24-47.43-94.19-53S98.33,267.14,98.33,267.13Z"/><path class="cls-2" d="M227.91,197.94A21.34,21.34,0,0,1,251,221.86h0L238.39,313.4,210.06,211.17A21.33,21.33,0,0,1,227.91,197.94Z"/><path class="cls-2" d="M94.2,344a21.32,21.32,0,0,0,25.87,20.91h0l90.07-20.66-104.33-19.2A21.33,21.33,0,0,0,94.2,344Z"/><path class="cls-2" d="M133.8,379.8a13.2,13.2,0,0,0,16.48,8.77,12.68,12.68,0,0,0,2.61-1.12h0l49.5-28.6-69.1,15.75A13,13,0,0,0,133.8,379.8Z"/><path class="cls-2" d="M266.79,234.51A13.2,13.2,0,0,1,277,250.15a13.34,13.34,0,0,1-.88,2.7h0L252,304.68l9.58-70.22A13.12,13.12,0,0,1,266.79,234.51Z"/><circle class="cls-2" cx="240.79" cy="343.97" r="18.14"/><path class="cls-2" d="M239.57,1638.78a19.82,19.82,0,1,0,26,29.62h0l57.25-63.93-79.53,32.24h0A19.6,19.6,0,0,0,239.57,1638.78Z"/><path class="cls-2" d="M319.5,1556.55a4.89,4.89,0,0,0-8,5.63,4.77,4.77,0,0,0,.69.79h0L328,1577.1,320,1557.47h0A5.29,5.29,0,0,0,319.5,1556.55Z"/><path class="cls-2" d="M358.79,1629.44a4.89,4.89,0,1,0,8-5.63,5.21,5.21,0,0,0-.69-.79h0l-15.77-14.12,7.95,19.62h0A5.52,5.52,0,0,0,358.79,1629.44Z"/><path class="cls-2" d="M230.11,1635a17.2,17.2,0,0,1,4-31.27,16.78,16.78,0,0,1,3.65-.65h0l74.39-4.15s-65.44,26.08-72.36,29.24S230.11,1635,230.11,1635Z"/><path class="cls-2" d="M262.74,1681.44a17.2,17.2,0,0,0,30.8,6.77,16.93,16.93,0,0,0,1.84-3.21h0l29.07-68.6s-46.69,52.76-52,58.21S262.75,1681.44,262.74,1681.44Z"/><path class="cls-2" d="M234.06,1579.29a15.43,15.43,0,0,1,17.24-13.35,15.69,15.69,0,0,1,3.23.77h0l62.6,23.12-76.5,4.11A15.43,15.43,0,0,1,234.06,1579.29Z"/><path class="cls-2" d="M316.33,1696.29a15.42,15.42,0,0,0,18.4-11.7,15.6,15.6,0,0,0,.37-3.3h0l-.58-66.74-29.75,70.61A15.43,15.43,0,0,0,316.33,1696.29Z"/><path class="cls-2" d="M347.72,1673.92a9.53,9.53,0,0,0,8.75-10.26,10.17,10.17,0,0,0-.38-2h0l-12.48-39.35.37,51.18A9.51,9.51,0,0,0,347.72,1673.92Z"/><path class="cls-2" d="M265.9,1557.55a9.52,9.52,0,0,1,12.61-4.76,9.68,9.68,0,0,1,1.77,1h0l32.81,25.06-48-17.67A9.48,9.48,0,0,1,265.9,1557.55Z"/><circle class="cls-2" cx="339.07" cy="1592.89" r="13.1"/><path class="cls-2" d="M1021.84,1038.27a27.45,27.45,0,1,0-54.26,5.87h0l26.82,115.76,26.82-115.76h0A27.64,27.64,0,0,0,1021.84,1038.27Z"/><path class="cls-2" d="M1051.31,1194.28a6.77,6.77,0,0,0,0-13.54,6.32,6.32,0,0,0-1.45.16h0l-28.56,6.61,28.56,6.62h0A6.93,6.93,0,0,0,1051.31,1194.28Z"/><path class="cls-2" d="M937.47,1180.74a6.77,6.77,0,1,0,0,13.54,7,7,0,0,0,1.45-.15h0l28.56-6.62-28.56-6.61h0A6.38,6.38,0,0,0,937.47,1180.74Z"/><path class="cls-2" d="M1033.62,1030.54a23.82,23.82,0,0,1,32.2,29.49,24.31,24.31,0,0,1-2.17,4.64h0l-54.54,87.57s22.57-94.9,24.51-105.25S1033.62,1030.55,1033.62,1030.54Z"/><path class="cls-2" d="M955.07,1030.54a23.82,23.82,0,0,0-30,34.13h0l54.54,87.57S957,1057.34,955.07,1047,955.06,1030.55,955.07,1030.54Z"/><path class="cls-2" d="M1093.6,1079.41a21.37,21.37,0,0,1-2,33.2h0l-76,52.49,56.28-89.92A21.32,21.32,0,0,1,1093.6,1079.41Z"/><path class="cls-2" d="M895.57,1079.41a21.33,21.33,0,0,0-1.4,30.15,21,21,0,0,0,3.44,3h0l76,52.49-56.28-89.92A21.31,21.31,0,0,0,895.57,1079.41Z"/><path class="cls-2" d="M895.91,1132.77a13.22,13.22,0,0,0,4.65,18.09,13.58,13.58,0,0,0,2.59,1.17h0l54.51,17.21-58.27-40.34A13,13,0,0,0,895.91,1132.77Z"/><path class="cls-2" d="M1092.87,1132.77a13.21,13.21,0,0,1-7.24,19.26h0l-54.51,17.21,58.27-40.34A13,13,0,0,1,1092.87,1132.77Z"/><circle class="cls-2" cx="994.58" cy="1187.51" r="18.14"/><path class="cls-2" d="M911.19,385a27.45,27.45,0,1,0,17.15-51.81h0L811.89,309.62,906.11,382h0A27.92,27.92,0,0,0,911.19,385Z"/><path class="cls-2" d="M757,347.16a6.78,6.78,0,0,0,12.33,5.62,7.26,7.26,0,0,0,.45-1.39h0l5.83-28.73-17.87,23.25h0A7.35,7.35,0,0,0,757,347.16Z"/><path class="cls-2" d="M816.53,249.18a6.78,6.78,0,0,0-12.33-5.62,7.26,7.26,0,0,0-.45,1.39h0l-5.82,28.73,17.87-23.25h0A6.79,6.79,0,0,0,816.53,249.18Z"/><path class="cls-2" d="M913.35,399A23.83,23.83,0,0,1,873.16,416a23.49,23.49,0,0,1-3.33-3.9h0l-57.07-85.94s77,59.89,85.62,65.94S913.33,399,913.35,399Z"/><path class="cls-2" d="M945.92,327.47a23.83,23.83,0,0,0-13.49-41.53,24.39,24.39,0,0,0-5.13.05h0L825,299.32s95.72,18.8,105.94,21.33S945.91,327.47,945.92,327.47Z"/><path class="cls-2" d="M844,433.27A21.34,21.34,0,0,1,816,422a20.91,20.91,0,0,1-1.34-4.39h0l-16.23-91,58.5,88.5A21.33,21.33,0,0,1,844,433.27Z"/><path class="cls-2" d="M926.11,253.06a21.36,21.36,0,0,0-31.06-11.9h0l-79.3,47.44,105.17-13.93A21.35,21.35,0,0,0,926.11,253.06Z"/><path class="cls-2" d="M877.41,231.25A13.2,13.2,0,0,0,859,228a12.82,12.82,0,0,0-2.14,1.87h0l-38.26,42.48L879.49,236A13.08,13.08,0,0,0,877.41,231.25Z"/><path class="cls-2" d="M795.74,410.48a13.2,13.2,0,0,1-14.52-11.73,12.84,12.84,0,0,1,0-2.84h0l6.94-56.74,12.56,69.75A13.27,13.27,0,0,1,795.74,410.48Z"/><circle class="cls-2" cx="786.69" cy="298.34" r="18.14"/><path class="cls-2" d="M675.84,844.07A27.45,27.45,0,1,0,624,827h0l-23.34,116.5,72.19-94.37h0A27.36,27.36,0,0,0,675.84,844.07Z"/><path class="cls-2" d="M638.31,998.35A6.77,6.77,0,0,0,643.9,986a6.66,6.66,0,0,0-1.39-.46h0l-28.74-5.76,23.28,17.82h0A6.87,6.87,0,0,0,638.31,998.35Z"/><path class="cls-2" d="M540.2,939a6.77,6.77,0,1,0-5.59,12.33,6.58,6.58,0,0,0,1.38.46h0l28.75,5.76-23.29-17.81h0A6.24,6.24,0,0,0,540.2,939Z"/><path class="cls-2" d="M689.77,841.89A23.83,23.83,0,0,1,703,885.38h0l-85.81,57.25s59.72-77.12,65.76-85.76S689.77,841.9,689.77,841.89Z"/><path class="cls-2" d="M618.22,809.47a23.83,23.83,0,0,0-41.51,13.58,24.38,24.38,0,0,0,.07,5.13h0l13.55,102.26s18.6-95.75,21.11-106S618.21,809.48,618.22,809.47Z"/><path class="cls-2" d="M724.23,911.16a21.34,21.34,0,0,1-15.56,29.4h0L617.73,957l88.38-58.69A21.34,21.34,0,0,1,724.23,911.16Z"/><path class="cls-2" d="M543.85,829.44A21.34,21.34,0,0,0,532,860.52h0l47.61,79.2L565.46,834.59A21.32,21.32,0,0,0,543.85,829.44Z"/><path class="cls-2" d="M522.14,878.19a13.2,13.2,0,0,0-3.22,18.39,12.82,12.82,0,0,0,1.87,2.14h0l42.55,38.17-36.43-60.8A13.08,13.08,0,0,0,522.14,878.19Z"/><path class="cls-2" d="M701.55,959.47A13.21,13.21,0,0,1,689.84,974a13.48,13.48,0,0,1-2.84,0h0l-56.75-6.82L700,954.5A13.18,13.18,0,0,1,701.55,959.47Z"/><circle class="cls-2" cx="589.42" cy="968.76" r="18.14"/><path class="cls-2" d="M1114.14,1548.9a27.45,27.45,0,1,0-34,42.66h0L1181.17,1654l-63.31-100.55h0A28.22,28.22,0,0,0,1114.14,1548.9Z"/><path class="cls-2" d="M1245.67,1637.84a6.77,6.77,0,0,0-9.62-9.54,7,7,0,0,0-.91,1.14h0l-15.41,24.94,24.8-15.62h0A7.07,7.07,0,0,0,1245.67,1637.84Z"/><path class="cls-2" d="M1155.88,1709.13a6.77,6.77,0,1,0,9.62,9.54,7,7,0,0,0,.91-1.14h0l15.41-24.94L1157,1708.21h0A6.93,6.93,0,0,0,1155.88,1709.13Z"/><path class="cls-2" d="M1116.94,1535.09a23.83,23.83,0,0,1,45.39,2.72h0l23.76,100.39s-51.48-82.86-57.47-91.52S1117,1535.1,1116.94,1535.09Z"/><path class="cls-2" d="M1061.63,1590.87a23.82,23.82,0,0,0-1.74,43.63,24.05,24.05,0,0,0,4.83,1.72h0l100.58,22.93s-83.27-50.79-92-56.71S1061.63,1590.88,1061.63,1590.87Z"/><path class="cls-2" d="M1193.88,1526.92a21.32,21.32,0,0,1,22.13,24.83h0l-16.29,91-24.21-103.28A21.33,21.33,0,0,1,1193.88,1526.92Z"/><path class="cls-2" d="M1054.43,1667.53a21.35,21.35,0,0,0,20.43,22.23,21.69,21.69,0,0,0,4.58-.31h0l90.83-17-103.48-23.36A21.35,21.35,0,0,0,1054.43,1667.53Z"/><path class="cls-2" d="M1092.56,1704.87a13.2,13.2,0,0,0,16.12,9.42,13,13,0,0,0,2.65-1h0l50.6-26.59-69.68,13A13.19,13.19,0,0,0,1092.56,1704.87Z"/><path class="cls-2" d="M1231.26,1565a13.2,13.2,0,0,1,9.56,16,13.62,13.62,0,0,1-1,2.66h0l-26.17,50.82,12.39-69.78A13,13,0,0,1,1231.26,1565Z"/><circle class="cls-2" cx="1200.91" cy="1673.35" r="18.14"/><path class="cls-2" d="M1575.15,1234.06a41.92,41.92,0,0,0-76.36-34.6A42.35,42.35,0,0,0,1496,1208h0L1460.31,1386l110.26-144.12h0A42.26,42.26,0,0,0,1575.15,1234.06Z"/><path class="cls-2" d="M1517.83,1469.65a10.34,10.34,0,1,0,6.42-19.53h0l-43.9-8.8,35.56,27.2h0A9.6,9.6,0,0,0,1517.83,1469.65Z"/><path class="cls-2" d="M1368,1379.07a10.34,10.34,0,1,0-6.42,19.53h0l43.89,8.8-35.55-27.2h0A9.81,9.81,0,0,0,1368,1379.07Z"/><path class="cls-2" d="M1596.41,1230.72a36.4,36.4,0,0,1,20.26,66.42h0l-131.05,87.43s91.2-117.78,100.42-131S1596.41,1230.74,1596.41,1230.72Z"/><path class="cls-2" d="M1487.14,1181.22a36.37,36.37,0,0,0-63.28,28.56h0L1444.54,1366s28.41-146.23,32.24-161.86S1487.13,1181.23,1487.14,1181.22Z"/><path class="cls-2" d="M1649.05,1336.51a32.58,32.58,0,0,1-23.77,44.89h0l-138.87,25.09,135-89.62A32.6,32.6,0,0,1,1649.05,1336.51Z"/><path class="cls-2" d="M1373.57,1211.71a32.59,32.59,0,0,0-18.08,47.46h0l72.71,121-21.62-160.56A32.56,32.56,0,0,0,1373.57,1211.71Z"/><path class="cls-2" d="M1340.42,1286.15a20.19,20.19,0,0,0-2.06,31.36h0l65,58.29L1347.71,1283A20.13,20.13,0,0,0,1340.42,1286.15Z"/><path class="cls-2" d="M1614.4,1410.28a20.16,20.16,0,0,1-17.87,22.22,19.77,19.77,0,0,1-4.35,0h0l-86.68-10.42,106.49-19.4A20.18,20.18,0,0,1,1614.4,1410.28Z"/><circle class="cls-2" cx="1443.17" cy="1424.48" r="27.7"/><path class="cls-2" d="M699.58,1477.59a41.91,41.91,0,1,0,69-47.54,41.42,41.42,0,0,0-5.89-6.84h0l-134-122.38,66.52,168.82h0A41.93,41.93,0,0,0,699.58,1477.59Z"/><path class="cls-2" d="M527.38,1306.88a10.34,10.34,0,1,0,13.42,15.59h0L571,1289.41l-41.65,16.41h0A10,10,0,0,0,527.38,1306.88Z"/><path class="cls-2" d="M682.31,1225.32a10.34,10.34,0,0,0-11.73-17,9.91,9.91,0,0,0-1.69,1.46h0l-30.19,33.06,41.65-16.41h0A11,11,0,0,0,682.31,1225.32Z"/><path class="cls-2" d="M691.45,1497.52a36.38,36.38,0,0,1-66-9.2,36.73,36.73,0,0,1-1.29-7.73h0l-7.23-157.37s53.8,138.91,60.33,153.61S691.44,1497.51,691.45,1497.52Z"/><path class="cls-2" d="M790.26,1429.49a36.39,36.39,0,0,0,8.2-69h0L654,1297.64s110.58,99.81,122,111.16S790.25,1429.47,790.26,1429.49Z"/><path class="cls-2" d="M573.68,1488a32.62,32.62,0,0,1-26.18-43.53h0l50.2-131.89,7.09,161.84A32.59,32.59,0,0,1,573.68,1488Z"/><path class="cls-2" d="M822.77,1316.48a32.57,32.57,0,0,0-31.32-40h0l-141.13-.15L799,1340.7A32.6,32.6,0,0,0,822.77,1316.48Z"/><path class="cls-2" d="M776.12,1249.66a20.17,20.17,0,0,0-21.52-18.72,20.64,20.64,0,0,0-4.27.77h0l-83.47,25.57,108.24.27A20.1,20.1,0,0,0,776.12,1249.66Z"/><path class="cls-2" d="M528.38,1420.24a20.17,20.17,0,0,1-9.81-26.78,20.59,20.59,0,0,1,2.25-3.71h0l53.67-68.85L536.12,1422.1A19.92,19.92,0,0,1,528.38,1420.24Z"/><circle class="cls-2" cx="604.61" cy="1266.26" r="27.7"/><path class="cls-2" d="M153.91,1413.29a13.64,13.64,0,1,0,22.47-15.47,14.18,14.18,0,0,0-1.92-2.22h0l-43.59-39.81,21.65,54.92h0A13.72,13.72,0,0,0,153.91,1413.29Z"/><path class="cls-2" d="M97.89,1357.75a3.37,3.37,0,0,0,3.82,5.55,3.57,3.57,0,0,0,.55-.48h0l9.82-10.75-13.55,5.34h0A3.28,3.28,0,0,0,97.89,1357.75Z"/><path class="cls-2" d="M148.29,1331.22a3.37,3.37,0,0,0-3.81-5.55,3.64,3.64,0,0,0-.55.48h0l-9.82,10.75,13.55-5.34h0A3.2,3.2,0,0,0,148.29,1331.22Z"/><path class="cls-2" d="M151.27,1419.78a11.84,11.84,0,0,1-21.49-3,12.31,12.31,0,0,1-.42-2.51h0l-2.35-51.2s17.5,45.19,19.63,50A18.49,18.49,0,0,0,151.27,1419.78Z"/><path class="cls-2" d="M183.42,1397.64a11.83,11.83,0,0,0,4.86-21.14,11.94,11.94,0,0,0-2.2-1.29h0l-47-20.46s36,32.47,39.69,36.16A18.48,18.48,0,0,1,183.42,1397.64Z"/><path class="cls-2" d="M113,1416.68a10.57,10.57,0,0,1-8.51-14.16h0l16.34-42.91,2.3,52.65A10.6,10.6,0,0,1,113,1416.68Z"/><path class="cls-2" d="M194,1360.88a10.61,10.61,0,0,0-7.92-12.74,11.07,11.07,0,0,0-2.27-.27h0l-45.91,0,48.37,20.94A10.61,10.61,0,0,0,194,1360.88Z"/><path class="cls-2" d="M178.82,1339.14a6.57,6.57,0,0,0-7-6.09,6.22,6.22,0,0,0-1.39.25h0l-27.16,8.31,35.21.09A6.44,6.44,0,0,0,178.82,1339.14Z"/><path class="cls-2" d="M98.22,1394.63a6.55,6.55,0,0,1-3.19-8.71,6.66,6.66,0,0,1,.72-1.21h0l17.46-22.4-12.48,32.93A6.47,6.47,0,0,1,98.22,1394.63Z"/><circle class="cls-2" cx="123.02" cy="1344.54" r="9.01"/><path class="cls-2" d="M1686.72,1502.09a13.64,13.64,0,0,0,22.6,15.27,13.22,13.22,0,0,0,1.37-2.6h0l21.16-55.11-43.24,40.19h0A13.31,13.31,0,0,0,1686.72,1502.09Z"/><path class="cls-2" d="M1718,1429.66a3.37,3.37,0,0,0-3.77,5.58,3.53,3.53,0,0,0,.64.33h0l13.6,5.22-9.92-10.67h0A3.58,3.58,0,0,0,1718,1429.66Z"/><path class="cls-2" d="M1761.09,1466.91a3.37,3.37,0,0,0,3.77-5.58,3.59,3.59,0,0,0-.64-.34h0l-13.6-5.22,9.91,10.67h0A3.16,3.16,0,0,0,1761.09,1466.91Z"/><path class="cls-2" d="M1679.72,1502a11.84,11.84,0,0,1-5-21.1,11.92,11.92,0,0,1,2.19-1.3h0l46.82-20.87s-35.69,32.79-39.37,36.51A18.25,18.25,0,0,0,1679.72,1502Z"/><path class="cls-2" d="M1712.06,1523.84a11.83,11.83,0,0,0,21.46-3.18,11.6,11.6,0,0,0,.4-2.52h0l1.9-51.22s-17.1,45.35-19.18,50.15A18.33,18.33,0,0,1,1712.06,1523.84Z"/><path class="cls-2" d="M1668.62,1465.19a10.62,10.62,0,0,1,7.82-12.81,10.93,10.93,0,0,1,2.26-.29h0l45.91-.46L1676.43,1473A10.62,10.62,0,0,1,1668.62,1465.19Z"/><path class="cls-2" d="M1750.15,1520.28a10.6,10.6,0,0,0,9-12,10.1,10.1,0,0,0-.57-2.21h0l-16.71-42.77L1740,1516A10.62,10.62,0,0,0,1750.15,1520.28Z"/><path class="cls-2" d="M1764.85,1498.21a6.56,6.56,0,0,0,3.12-8.74,7.29,7.29,0,0,0-.74-1.2h0L1749.57,1466l12.77,32.82A6.46,6.46,0,0,0,1764.85,1498.21Z"/><path class="cls-2" d="M1683.77,1443.42a6.56,6.56,0,0,1,7-6.15,6.42,6.42,0,0,1,1.39.24h0l27.23,8.08-35.22.4A6.46,6.46,0,0,1,1683.77,1443.42Z"/><circle class="cls-2" cx="1739.46" cy="1448.23" r="9.01"/><path class="cls-2" d="M153.82,1028.15A18,18,0,1,0,169,1060.53h0l66-41.31-77.47,8.07h0A17.51,17.51,0,0,0,153.82,1028.15Z"/><path class="cls-2" d="M244.22,976.6a4.44,4.44,0,0,0-8.39,2.89,3.85,3.85,0,0,0,.41.87h0l10.2,16.29-2-19.12h0A3.9,3.9,0,0,0,244.22,976.6Z"/><path class="cls-2" d="M260.12,1050.05a4.44,4.44,0,0,0,8.39-2.89,4.25,4.25,0,0,0-.41-.86h0L257.91,1030l2,19.11h0A4.48,4.48,0,0,0,260.12,1050.05Z"/><path class="cls-2" d="M146.51,1022.5a15.61,15.61,0,0,1,14.75-25.89h0l65.91,15.13S163.54,1018,156.7,1019,146.51,1022.5,146.51,1022.5Z"/><path class="cls-2" d="M163.27,1071.19a15.61,15.61,0,0,0,25.14,13.66,15.75,15.75,0,0,0,2.42-2.33h0L233.47,1030s-54,34.24-60,37.65S163.27,1071.19,163.27,1071.19Z"/><path class="cls-2" d="M164,974.9a14,14,0,0,1,18.4-7.3,14.89,14.89,0,0,1,2.62,1.48h0L233.78,1005,166,989.32A14,14,0,0,1,164,974.9Z"/><path class="cls-2" d="M206.25,1097.64a14,14,0,0,0,19-5.57,14.19,14.19,0,0,0,1.15-2.78h0L242.7,1031,199,1085A14,14,0,0,0,206.25,1097.64Z"/><path class="cls-2" d="M239.25,1086a8.66,8.66,0,0,0,10.22-6.74,8.42,8.42,0,0,0,.17-1.86h0l-1-37.45-12.57,44.72A8.64,8.64,0,0,0,239.25,1086Z"/><path class="cls-2" d="M197.23,964a8.67,8.67,0,0,1,12.21-1,9.1,9.1,0,0,1,1.28,1.36h0L233,994.46,195.57,967A8.64,8.64,0,0,1,197.23,964Z"/><circle class="cls-2" cx="252.13" cy="1013.21" r="11.89"/><path class="cls-2" d="M296.43,2001.32a16.51,16.51,0,1,0,14,29.72h0l60.6-37.92-71.1,7.41h0A17.21,17.21,0,0,0,296.43,2001.32Z"/><path class="cls-2" d="M379.41,1954a4.07,4.07,0,1,0-7.7,2.66,3.8,3.8,0,0,0,.37.79h0l9.36,15-1.83-17.54h0A4.46,4.46,0,0,0,379.41,1954Z"/><path class="cls-2" d="M394,2021.42a4.08,4.08,0,1,0,7.33-3.44h0L392,2003l1.83,17.55h0A3.71,3.71,0,0,0,394,2021.42Z"/><path class="cls-2" d="M289.72,1996.13A14.34,14.34,0,0,1,300.19,1972a14.09,14.09,0,0,1,3.07.33h0l60.5,13.89s-58.41,5.74-64.68,6.66S289.73,1996.13,289.72,1996.13Z"/><path class="cls-2" d="M305.1,2040.82a14.34,14.34,0,0,0,23.09,12.54,14.08,14.08,0,0,0,2.22-2.14h0L369.54,2003s-49.57,31.43-55.08,34.56S305.11,2040.82,305.1,2040.82Z"/><path class="cls-2" d="M305.78,1952.44a12.84,12.84,0,0,1,16.88-6.7,12.6,12.6,0,0,1,2.41,1.36h0l44.75,33-62.17-14.41A12.84,12.84,0,0,1,305.78,1952.44Z"/><path class="cls-2" d="M344.56,2065.1A12.85,12.85,0,0,0,362,2060a13.36,13.36,0,0,0,1.06-2.55h0l15-53.55-40.14,49.63A12.85,12.85,0,0,0,344.56,2065.1Z"/><path class="cls-2" d="M374.85,2054.46a8,8,0,0,0,9.38-6.19,9.15,9.15,0,0,0,.16-1.71h0l-.89-34.38-11.54,41A8,8,0,0,0,374.85,2054.46Z"/><path class="cls-2" d="M336.28,1942.41a8,8,0,0,1,11.2-.9,7.72,7.72,0,0,1,1.18,1.25h0l20.46,27.64-34.36-25.25A8,8,0,0,1,336.28,1942.41Z"/><circle class="cls-2" cx="386.67" cy="1987.61" r="10.91"/><path class="cls-2" d="M919.74,1327.45A13.64,13.64,0,1,0,942.21,1312a14.18,14.18,0,0,0-1.92-2.22h0l-43.59-39.82,21.65,54.93h0A13.46,13.46,0,0,0,919.74,1327.45Z"/><path class="cls-2" d="M863.72,1271.91a3.36,3.36,0,0,0,3.81,5.54,3.16,3.16,0,0,0,.55-.47h0l9.83-10.75-13.55,5.34h0A3.28,3.28,0,0,0,863.72,1271.91Z"/><path class="cls-2" d="M914.12,1245.37a3.36,3.36,0,1,0-3.81-5.54,3.16,3.16,0,0,0-.55.47h0l-9.83,10.76,13.56-5.34h0A3.25,3.25,0,0,0,914.12,1245.37Z"/><path class="cls-2" d="M917.1,1333.93a11.84,11.84,0,0,1-21.49-3,12.31,12.31,0,0,1-.42-2.51h0l-2.35-51.21s17.5,45.2,19.62,50S917.09,1333.93,917.1,1333.93Z"/><path class="cls-2" d="M949.24,1311.8a11.84,11.84,0,0,0,2.67-22.43h0l-47-20.47s36,32.48,39.69,36.17S949.24,1311.79,949.24,1311.8Z"/><path class="cls-2" d="M878.78,1330.83a10.61,10.61,0,0,1-9.07-11.94,11.63,11.63,0,0,1,.55-2.22h0l16.33-42.91,2.31,52.66A10.6,10.6,0,0,1,878.78,1330.83Z"/><path class="cls-2" d="M959.82,1275a10.6,10.6,0,0,0-7.92-12.73,10.44,10.44,0,0,0-2.27-.28h0l-45.91,0,48.37,20.94A10.6,10.6,0,0,0,959.82,1275Z"/><path class="cls-2" d="M944.64,1253.29a6.56,6.56,0,0,0-7-6.09,7.1,7.1,0,0,0-1.39.25h0l-27.15,8.32,35.21.09A6.28,6.28,0,0,0,944.64,1253.29Z"/><path class="cls-2" d="M864,1308.79a6.57,6.57,0,0,1-3.19-8.71,6.94,6.94,0,0,1,.73-1.21h0l17.46-22.4-12.48,32.93A6.56,6.56,0,0,1,864,1308.79Z"/><circle class="cls-2" cx="888.84" cy="1258.69" r="9.01"/><path class="cls-2" d="M1754.74,1807.25a17,17,0,1,0-2.35-33.74h0l-72.32,13.86,71,19.36h0A17.19,17.19,0,0,0,1754.74,1807.25Z"/><path class="cls-2" d="M1657.42,1821.8a4.2,4.2,0,0,0,8.39.32,4.44,4.44,0,0,0-.06-.9h0l-3.42-17.85-4.78,17.53h0A4.44,4.44,0,0,0,1657.42,1821.8Z"/><path class="cls-2" d="M1668.51,1751.62a4.2,4.2,0,1,0-8.39-.32,3.86,3.86,0,0,0,.07.9h0l3.42,17.84,4.77-17.53h0A4.34,4.34,0,0,0,1668.51,1751.62Z"/><path class="cls-2" d="M1759.25,1814.73a14.77,14.77,0,0,1-19,19.24,14.55,14.55,0,0,1-2.83-1.46h0l-52.93-35.86s58.23,16.23,64.6,17.68S1759.24,1814.73,1759.25,1814.73Z"/><path class="cls-2" d="M1761.11,1766.08a14.76,14.76,0,0,0-20.43-19.4h0l-55.52,31.7s59.31-11.72,65.76-12.68S1761.1,1766.08,1761.11,1766.08Z"/><path class="cls-2" d="M1727.56,1850.71a13.23,13.23,0,0,1-20.51-2h0l-30.71-48.34,54.35,37A13.21,13.21,0,0,1,1727.56,1850.71Z"/><path class="cls-2" d="M1732.26,1728.07a13.24,13.24,0,0,0-20.61.48h0l-34.31,45.85,57-32.72A13.22,13.22,0,0,0,1732.26,1728.07Z"/><path class="cls-2" d="M1699.2,1727a8.18,8.18,0,0,0-11.31,2.45,9.32,9.32,0,0,0-.79,1.58h0l-11.95,33.35,26.37-35.13A8.17,8.17,0,0,0,1699.2,1727Z"/><path class="cls-2" d="M1694.53,1849a8.18,8.18,0,0,1-11.09-3.31,7.89,7.89,0,0,1-.67-1.63h0l-9.36-34.17,23.6,37A8.18,8.18,0,0,1,1694.53,1849Z"/><circle class="cls-2" cx="1662.96" cy="1786.82" r="11.24"/><path class="cls-2" d="M864,1866a15.34,15.34,0,1,0-26.78,14.62h0l38.57,54.09-10.86-65.54h0A14.69,14.69,0,0,0,864,1866Z"/><path class="cls-2" d="M912.52,1940.31a3.79,3.79,0,1,0-2.9-7,4.43,4.43,0,0,0-.71.39h0l-13.35,9.52,16.17-2.68h0A4.45,4.45,0,0,0,912.52,1940.31Z"/><path class="cls-2" d="M850.79,1957.62a3.78,3.78,0,0,0,2.89,7,3.13,3.13,0,0,0,.72-.39h0l13.35-9.51-16.18,2.68h0A3.29,3.29,0,0,0,850.79,1957.62Z"/><path class="cls-2" d="M868.41,1859.47a13.32,13.32,0,0,1,22.94,8.36,13.65,13.65,0,0,1-.13,2.87h0l-9.49,56.89s-8.6-53.86-9.8-59.62S868.42,1859.47,868.41,1859.47Z"/><path class="cls-2" d="M827.82,1876.24a13.31,13.31,0,0,0-10.34,22.11,12.85,12.85,0,0,0,2.11,1.94h0l46.88,33.6s-31.93-44.22-35.14-49.15S827.82,1876.24,827.82,1876.24Z"/><path class="cls-2" d="M909.84,1871.92A11.92,11.92,0,0,1,917,1887.2a11.76,11.76,0,0,1-1.12,2.31h0l-28.1,43.36,9.89-58.48A11.9,11.9,0,0,1,909.84,1871.92Z"/><path class="cls-2" d="M807.51,1914.2a11.93,11.93,0,0,0,5.71,15.88,12.28,12.28,0,0,0,2.43.84h0l50.51,10.89-48.28-34.46A11.93,11.93,0,0,0,807.51,1914.2Z"/><path class="cls-2" d="M819.08,1941.7a7.37,7.37,0,0,0,6.26,8.35,7.75,7.75,0,0,0,1.59.06h0l31.84-2.75L820.05,1939A7.34,7.34,0,0,0,819.08,1941.7Z"/><path class="cls-2" d="M920.86,1899.65a7.37,7.37,0,0,1,1.45,10.34,7.46,7.46,0,0,1-1.08,1.16h0l-24.5,20.53,21.5-33.29A7.26,7.26,0,0,1,920.86,1899.65Z"/><circle class="cls-2" cx="881.75" cy="1948.92" r="10.14"/><path class="cls-2" d="M1364.58,305a20.09,20.09,0,1,0,33.09-22.79,20.37,20.37,0,0,0-2.82-3.28h0l-64.22-58.66,31.89,80.92h0A20.44,20.44,0,0,0,1364.58,305Z"/><path class="cls-2" d="M1282,223.18a5,5,0,1,0,6.43,7.47h0l14.47-15.84-20,7.87h0A5.32,5.32,0,0,0,1282,223.18Z"/><path class="cls-2" d="M1356.3,184.09a5,5,0,0,0-5.62-8.17,5.51,5.51,0,0,0-.81.7h0l-14.47,15.84,20-7.86h0A5.38,5.38,0,0,0,1356.3,184.09Z"/><path class="cls-2" d="M1360.68,314.56a17.44,17.44,0,0,1-32.27-8.12h0L1324.94,231s25.78,66.58,28.91,73.63S1360.68,314.55,1360.68,314.56Z"/><path class="cls-2" d="M1408,282a17.44,17.44,0,0,0,7.17-31.15,18.05,18.05,0,0,0-3.24-1.9h0l-69.23-30.14s53,47.84,58.47,53.27S1408,281.94,1408,282Z"/><path class="cls-2" d="M1304.23,310a15.62,15.62,0,0,1-13.36-17.6,16.72,16.72,0,0,1,.81-3.26h0l24.06-63.22,3.4,77.58A15.61,15.61,0,0,1,1304.23,310Z"/><path class="cls-2" d="M1423.62,227.79A15.62,15.62,0,0,0,1412,209a16.05,16.05,0,0,0-3.34-.41h0l-67.64-.08,71.26,30.85A15.61,15.61,0,0,0,1423.62,227.79Z"/><path class="cls-2" d="M1401.26,195.75a9.65,9.65,0,0,0-10.31-9,9.88,9.88,0,0,0-2,.36h0l-40,12.26,51.87.13A9.37,9.37,0,0,0,1401.26,195.75Z"/><path class="cls-2" d="M1282.52,277.52a9.67,9.67,0,0,1-4.7-12.84,9.89,9.89,0,0,1,1.07-1.78h0l25.72-33-18.38,48.51A9.47,9.47,0,0,1,1282.52,277.52Z"/><circle class="cls-2" cx="1319.06" cy="203.71" r="13.28"/><path class="cls-2" d="M1638.06,734.7A13.64,13.64,0,1,0,1658.6,717h0L1615,677.19l21.64,54.93h0A14.09,14.09,0,0,0,1638.06,734.7Z"/><path class="cls-2" d="M1582,679.16a3.36,3.36,0,1,0,3.82,5.54,3.58,3.58,0,0,0,.55-.47h0l9.82-10.75-13.55,5.34h0A3.59,3.59,0,0,0,1582,679.16Z"/><path class="cls-2" d="M1632.44,652.62a3.36,3.36,0,0,0-3.82-5.54,3.58,3.58,0,0,0-.55.47h0l-9.82,10.76L1631.8,653h0A3.65,3.65,0,0,0,1632.44,652.62Z"/><path class="cls-2" d="M1635.41,741.19a11.84,11.84,0,0,1-21.48-3,11.66,11.66,0,0,1-.42-2.51h0l-2.35-51.2s17.5,45.19,19.63,50A18.48,18.48,0,0,0,1635.41,741.19Z"/><path class="cls-2" d="M1667.56,719.05a11.84,11.84,0,0,0,2.67-22.43h0l-47-20.46s36,32.47,39.68,36.16A18.32,18.32,0,0,1,1667.56,719.05Z"/><path class="cls-2" d="M1597.1,738.09a10.61,10.61,0,0,1-9.07-12,10.3,10.3,0,0,1,.55-2.22h0L1604.91,681l2.31,52.66A10.63,10.63,0,0,1,1597.1,738.09Z"/><path class="cls-2" d="M1678.14,682.28a10.61,10.61,0,0,0-7.93-12.73,10.41,10.41,0,0,0-2.26-.27h0l-45.92,0,48.37,20.94A10.61,10.61,0,0,0,1678.14,682.28Z"/><path class="cls-2" d="M1663,660.54a6.57,6.57,0,0,0-7-6.09,7,7,0,0,0-1.39.25h0L1627.41,663l35.22.09A6.64,6.64,0,0,0,1663,660.54Z"/><path class="cls-2" d="M1582.36,716a6.55,6.55,0,0,1-3.19-8.71,6.38,6.38,0,0,1,.73-1.21h0l17.46-22.4-12.48,32.93A6.52,6.52,0,0,1,1582.36,716Z"/><circle class="cls-2" cx="1607.16" cy="665.95" r="9.01"/><path class="cls-2" d="M871.55,551.49A13.64,13.64,0,1,0,890,571.56a13.84,13.84,0,0,0,1.93-2.21h0l33.32-48.74-51.35,29.12h0A14.06,14.06,0,0,0,871.55,551.49Z"/><path class="cls-2" d="M918.7,488.24a3.37,3.37,0,0,0-5,4.55,3.57,3.57,0,0,0,.55.48h0l12,8.22-7.18-12.67h0A3.48,3.48,0,0,0,918.7,488.24Z"/><path class="cls-2" d="M952,534.42a3.37,3.37,0,0,0,5-4.55,3.57,3.57,0,0,0-.55-.48h0l-12-8.22,7.18,12.67h0A3.48,3.48,0,0,0,952,534.42Z"/><path class="cls-2" d="M864.76,549.78a11.84,11.84,0,0,1,0-21.7,11.39,11.39,0,0,1,2.43-.76h0l50.36-9.5s-42.29,23.66-46.73,26.44A18.4,18.4,0,0,0,864.76,549.78Z"/><path class="cls-2" d="M891.18,578.51a11.84,11.84,0,0,0,21.62,1.85,12.53,12.53,0,0,0,1-2.35h0l13.67-49.4S900.33,568.78,897.2,573A18.33,18.33,0,0,1,891.18,578.51Z"/><path class="cls-2" d="M862.46,511.41A10.59,10.59,0,0,1,875.29,501h0l44.78,10.15-51.82,9.67A10.62,10.62,0,0,1,862.46,511.41Z"/><path class="cls-2" d="M929.07,583.83a10.62,10.62,0,0,0,11.5-9.63,10.28,10.28,0,0,0-.05-2.29h0l-6.38-45.46-14,50.82A10.61,10.61,0,0,0,929.07,583.83Z"/><path class="cls-2" d="M948.47,565.75a6.56,6.56,0,0,0,5-7.78,6,6,0,0,0-.45-1.34h0L941,530.91l4.85,34.88A6.66,6.66,0,0,0,948.47,565.75Z"/><path class="cls-2" d="M882.22,493.72a6.57,6.57,0,0,1,8.18-4.37,6,6,0,0,1,1.3.55h0L916.33,504,882,496.3A6.54,6.54,0,0,1,882.22,493.72Z"/><circle class="cls-2" cx="935.3" cy="511.26" r="9.01"/><path class="cls-2" d="M325.62,657.22a13.64,13.64,0,1,0,20.54-17.69h0l-43.6-39.82,21.65,54.93h0A14.09,14.09,0,0,0,325.62,657.22Z"/><path class="cls-2" d="M269.59,601.68a3.36,3.36,0,0,0,3.82,5.54,4.13,4.13,0,0,0,.55-.47h0L283.78,596l-13.55,5.34h0A3.59,3.59,0,0,0,269.59,601.68Z"/><path class="cls-2" d="M320,575.15a3.37,3.37,0,0,0-3.82-5.55,3.16,3.16,0,0,0-.55.48h0l-9.82,10.76,13.55-5.34h0A3.59,3.59,0,0,0,320,575.15Z"/><path class="cls-2" d="M323,663.71a11.84,11.84,0,0,1-21.48-3,11.07,11.07,0,0,1-.42-2.51h0L298.71,607s17.5,45.19,19.63,50A18.48,18.48,0,0,0,323,663.71Z"/><path class="cls-2" d="M355.12,641.57A11.83,11.83,0,0,0,360,620.43a11.33,11.33,0,0,0-2.19-1.29h0l-47-20.46s36,32.47,39.69,36.16A18.32,18.32,0,0,1,355.12,641.57Z"/><path class="cls-2" d="M284.66,660.61a10.61,10.61,0,0,1-9.07-12,10.3,10.3,0,0,1,.55-2.22h0l16.33-42.91,2.3,52.66A10.61,10.61,0,0,1,284.66,660.61Z"/><path class="cls-2" d="M365.7,604.81a10.62,10.62,0,0,0-7.93-12.74,10.42,10.42,0,0,0-2.27-.27h0l-45.91,0L358,612.68A10.63,10.63,0,0,0,365.7,604.81Z"/><path class="cls-2" d="M350.52,583.06a6.55,6.55,0,0,0-7-6.08,6.31,6.31,0,0,0-1.39.24h0L315,585.54l35.22.09A6.64,6.64,0,0,0,350.52,583.06Z"/><path class="cls-2" d="M269.92,638.56a6.55,6.55,0,0,1-3.19-8.71,6.38,6.38,0,0,1,.73-1.21h0l17.46-22.4-12.47,32.93A6.47,6.47,0,0,1,269.92,638.56Z"/><circle class="cls-2" cx="294.72" cy="588.47" r="9.01"/><path class="cls-2" d="M1683.4,273.46A13.63,13.63,0,1,0,1705.86,258a13.77,13.77,0,0,0-1.91-2.23h0L1660.36,216,1682,270.88h0A13.77,13.77,0,0,0,1683.4,273.46Z"/><path class="cls-2" d="M1627.37,217.92a3.37,3.37,0,0,0,3.82,5.55,3.16,3.16,0,0,0,.55-.48h0l9.82-10.76L1628,217.58h0A3.59,3.59,0,0,0,1627.37,217.92Z"/><path class="cls-2" d="M1677.78,191.39a3.36,3.36,0,0,0-3.82-5.54,4.13,4.13,0,0,0-.55.47h0l-9.82,10.75,13.55-5.34h0A3.59,3.59,0,0,0,1677.78,191.39Z"/><path class="cls-2" d="M1680.75,280a11.84,11.84,0,0,1-21.48-3,11.55,11.55,0,0,1-.42-2.51h0l-2.35-51.2s17.5,45.19,19.63,50A18.36,18.36,0,0,0,1680.75,280Z"/><path class="cls-2" d="M1712.9,257.81a11.83,11.83,0,0,0,4.87-21.14,12.28,12.28,0,0,0-2.2-1.29h0l-47-20.46s36,32.47,39.68,36.16A18.32,18.32,0,0,1,1712.9,257.81Z"/><path class="cls-2" d="M1642.44,276.85a10.6,10.6,0,0,1-9.07-12,10.07,10.07,0,0,1,.55-2.21h0l16.33-42.91,2.31,52.65A10.58,10.58,0,0,1,1642.44,276.85Z"/><path class="cls-2" d="M1723.48,221.05a10.61,10.61,0,0,0-7.93-12.74,11.06,11.06,0,0,0-2.26-.27h0l-45.92,0,48.37,20.94A10.61,10.61,0,0,0,1723.48,221.05Z"/><path class="cls-2" d="M1708.3,199.31a6.56,6.56,0,0,0-7-6.09,6.32,6.32,0,0,0-1.39.25h0l-27.16,8.32,35.22.09A6.69,6.69,0,0,0,1708.3,199.31Z"/><path class="cls-2" d="M1627.7,254.81a6.56,6.56,0,0,1-3.19-8.72,6.71,6.71,0,0,1,.73-1.21h0l17.46-22.4-12.48,32.93A6.69,6.69,0,0,1,1627.7,254.81Z"/><circle class="cls-2" cx="1652.5" cy="204.71" r="9.01"/><path class="cls-2" d="M1242.94,21.9a41.91,41.91,0,1,0,63.58,53.88h0l99.91-151.47L1250.1,16.42h0A41.76,41.76,0,0,0,1242.94,21.9Z"/><path class="cls-2" d="M1384.61-174.87a10.34,10.34,0,0,0-14.62-.37,10.35,10.35,0,0,0-.37,14.62,10.91,10.91,0,0,0,1.7,1.44h0l37.37,24.65L1386-173.1h0A9.94,9.94,0,0,0,1384.61-174.87Z"/><path class="cls-2" d="M1489.4-34.61a10.34,10.34,0,0,0,14.62.37,10.34,10.34,0,0,0,.37-14.62,10,10,0,0,0-1.7-1.43h0l-37.38-24.65,22.73,38.58h0A10.36,10.36,0,0,0,1489.4-34.61Z"/><path class="cls-2" d="M1222,17a36.25,36.25,0,0,1-19.12-18.41,36.4,36.4,0,0,1,17.88-48.26,36.85,36.85,0,0,1,7.43-2.48h0l154.31-31.75S1253.69-9.06,1240.19-.31,1222,17,1222,17Z"/><path class="cls-2" d="M1304.62,103.94a36.37,36.37,0,0,0,69.38-2.68h0l39.53-152.5S1332.25,73.6,1322.83,86.63,1304.64,103.94,1304.62,103.94Z"/><path class="cls-2" d="M1213-100.82a32.59,32.59,0,0,1,31.91-33.27,32.31,32.31,0,0,1,7,.61h0l138.12,29L1231.24-72.22A32.59,32.59,0,0,1,1213-100.82Z"/><path class="cls-2" d="M1421.32,118.38a32.59,32.59,0,0,0,34.85-30.17,32.12,32.12,0,0,0-.25-7h0L1434-58.22,1393.69,98.69A32.58,32.58,0,0,0,1421.32,118.38Z"/><path class="cls-2" d="M1480,61.86a20.16,20.16,0,0,0,15.12-24.18,20.68,20.68,0,0,0-1.42-4.1h0l-38.31-78.44,16.66,106.94A20,20,0,0,0,1480,61.86Z"/><path class="cls-2" d="M1272.81-156.16A20.16,20.16,0,0,1,1297.72-170a20.38,20.38,0,0,1,4,1.63h0l76.39,42.23-106-22A19.94,19.94,0,0,1,1272.81-156.16Z"/><circle class="cls-2" cx="1436.81" cy="-104.95" r="27.7"/><path class="cls-2" d="M1344.12,772.25a27.45,27.45,0,1,0,38.47-38.71h0l-93.69-73.08,52,106.83h0A27.61,27.61,0,0,0,1344.12,772.25Z"/><path class="cls-2" d="M1223,669.55a6.77,6.77,0,1,0,9.55,9.49h0l18-23.11-26.36,12.83h0A7.34,7.34,0,0,0,1223,669.55Z"/><path class="cls-2" d="M1320,608.43a6.77,6.77,0,1,0-8.53-10.52,7.09,7.09,0,0,0-1,1h0l-18,23.11,26.36-12.83h0A6.75,6.75,0,0,0,1320,608.43Z"/><path class="cls-2" d="M1339.83,785.67A23.83,23.83,0,0,1,1295,778h0l-12.72-102.37s42.18,88,47.19,97.22S1339.82,785.67,1339.83,785.67Z"/><path class="cls-2" d="M1400.88,736.24a23.83,23.83,0,0,0,1.85-45.43h0l-97.49-33.72s77.26,59.54,85.28,66.36S1400.87,736.23,1400.88,736.24Z"/><path class="cls-2" d="M1262.46,785.44a21.35,21.35,0,0,1-20.06-22.56,21.13,21.13,0,0,1,.76-4.53h0l26.07-88.65L1282.08,775A21.36,21.36,0,0,1,1262.46,785.44Z"/><path class="cls-2" d="M1416.36,660.81a21.31,21.31,0,0,0-22.48-24.51h0l-92.14,7.07,100.33,34.47A21.35,21.35,0,0,0,1416.36,660.81Z"/><path class="cls-2" d="M1382.51,619.55a13.21,13.21,0,0,0-15-11.12,13.08,13.08,0,0,0-2.75.72h0l-53.19,20.94,70.67-5.32A13,13,0,0,0,1382.51,619.55Z"/><path class="cls-2" d="M1229.44,743.51A13.18,13.18,0,0,1,1223,724h0l31.54-47.68-19.9,68A13.24,13.24,0,0,1,1229.44,743.51Z"/><circle class="cls-2" cx="1271.38" cy="639.11" r="18.14"/><path class="cls-2" d="M952.75,866.6a18.08,18.08,0,0,1,1.87,8.93,8.77,8.77,0,0,0,2.69-10.81h0a8.77,8.77,0,0,0-10.1-4.72A18,18,0,0,1,952.75,866.6Z"/><path class="cls-2" d="M939.87,873a26.88,26.88,0,0,1,2.42,14.77l.47-.21a14.38,14.38,0,0,0,6.54-19.27h0A14.39,14.39,0,0,0,930,861.76l-.1.06A26.83,26.83,0,0,1,939.87,873Z"/><path class="cls-2" d="M919,883a41.24,41.24,0,0,1,3.57,23.72,23,23,0,0,0,2.9-1.15h0a23.16,23.16,0,0,0,11-30.87h0a23.17,23.17,0,0,0-30.87-11h0a23.15,23.15,0,0,0-2.72,1.52A41.25,41.25,0,0,1,919,883Z"/><path class="cls-2" d="M885,899.1a64.18,64.18,0,0,1,5.38,38.16,37.26,37.26,0,0,0,7.28-2.59h0a37.55,37.55,0,0,0,17.78-50h0a37.56,37.56,0,0,0-50.05-17.78h0a37.69,37.69,0,0,0-6.6,4A64.13,64.13,0,0,1,885,899.1Z"/><path class="cls-2" d="M802.29,875.48l-.09,0a56.62,56.62,0,0,0-10.68,6.61,102.18,102.18,0,0,1,47.67,100.23,57.18,57.18,0,0,0,11.87-4.12l.09,0a56.87,56.87,0,1,0-48.86-102.72Z"/><path class="cls-2" d="M987.15,1512.47a18.06,18.06,0,0,1-9.12,0,8.78,8.78,0,0,0,10,4.87h0a8.78,8.78,0,0,0,6.71-8.92A18.09,18.09,0,0,1,987.15,1512.47Z"/><path class="cls-2" d="M983.53,1498.54a26.83,26.83,0,0,1-14.95-.68c0,.17.06.34.1.5a14.4,14.4,0,0,0,17.51,10.38h0a14.4,14.4,0,0,0,10.38-17.51s0-.07,0-.11A26.81,26.81,0,0,1,983.53,1498.54Z"/><path class="cls-2" d="M978.11,1476a41.19,41.19,0,0,1-24-1.39,23.48,23.48,0,0,0,.53,3.07h0a23.16,23.16,0,0,0,27.94,17.1h0a23.18,23.18,0,0,0,17.1-28h0a24,24,0,0,0-.94-3A41,41,0,0,1,978.11,1476Z"/><path class="cls-2" d="M969.32,1439.5a64.14,64.14,0,0,1-38.45-2.61,37.49,37.49,0,0,0,1,7.66h0a37.54,37.54,0,0,0,45.3,27.72h0a37.54,37.54,0,0,0,27.72-45.3h0a37.44,37.44,0,0,0-2.56-7.29A64.18,64.18,0,0,1,969.32,1439.5Z"/><path class="cls-2" d="M1009.5,1363.41l0-.1a56.65,56.65,0,0,0-4.26-11.81,102.22,102.22,0,0,1-107.9,26,57.07,57.07,0,0,0,1.57,12.46l0,.09a56.87,56.87,0,1,0,110.59-26.62Z"/><path class="cls-2" d="M1401.88,1023.82a18.13,18.13,0,0,1,4.69-7.82,8.77,8.77,0,0,0-9.31,6.11h0a8.75,8.75,0,0,0,4.21,10.33A18.08,18.08,0,0,1,1401.88,1023.82Z"/><path class="cls-2" d="M1415.69,1027.86a27,27,0,0,1,8.25-12.49l-.48-.17a14.39,14.39,0,0,0-17.89,9.71h0a14.39,14.39,0,0,0,9.71,17.89l.11,0A26.8,26.8,0,0,1,1415.69,1027.86Z"/><path class="cls-2" d="M1437.81,1034.76a41.23,41.23,0,0,1,13.48-19.84,21.66,21.66,0,0,0-2.91-1.13h0a23.16,23.16,0,0,0-29,15.21h0a23.17,23.17,0,0,0,15.22,29h0a23.76,23.76,0,0,0,3,.72A41.19,41.19,0,0,1,1437.81,1034.76Z"/><path class="cls-2" d="M1473.66,1045.94a64.24,64.24,0,0,1,22-31.67,37.21,37.21,0,0,0-7.1-3h0a37.55,37.55,0,0,0-47,24.67h0a37.57,37.57,0,0,0,24.68,47h0a37.52,37.52,0,0,0,7.57,1.53A64.25,64.25,0,0,1,1473.66,1045.94Z"/><path class="cls-2" d="M1518.38,1119.46l.09,0a57.09,57.09,0,0,0,12.33,2.39,102.17,102.17,0,0,1,33-106,57.49,57.49,0,0,0-11.5-5l-.1,0a56.88,56.88,0,1,0-33.86,108.6Z"/><path class="cls-2" d="M1940.79,383.64a21,21,0,0,1,10.38-1.64,10.1,10.1,0,0,0-12.28-3.71h0a10.1,10.1,0,0,0-6,11.35A20.84,20.84,0,0,1,1940.79,383.64Z"/><path class="cls-2" d="M1947.44,398.82a30.89,30.89,0,0,1,17.12-1.93c-.07-.19-.13-.38-.21-.56a16.57,16.57,0,0,0-21.79-8.63h0a16.56,16.56,0,0,0-8.62,21.79s0,.08,0,.12A30.94,30.94,0,0,1,1947.44,398.82Z"/><path class="cls-2" d="M1957.68,423.46a47.34,47.34,0,0,1,27.49-2.75,25.81,25.81,0,0,0-1.15-3.41h0a26.67,26.67,0,0,0-34.88-14.38h0a26.68,26.68,0,0,0-14.38,34.88h0a28.24,28.24,0,0,0,1.6,3.21A47.4,47.4,0,0,1,1957.68,423.46Z"/><path class="cls-2" d="M1974.3,463.39a74,74,0,0,1,44.2-4,43.08,43.08,0,0,0-2.56-8.52h0a43.24,43.24,0,0,0-56.55-23.32h0a43.25,43.25,0,0,0-23.32,56.55h0a42.89,42.89,0,0,0,4.24,7.82A73.91,73.91,0,0,1,1974.3,463.39Z"/><path class="cls-2" d="M1942.4,557.21l0,.11a65.08,65.08,0,0,0,7,12.66,117.65,117.65,0,0,1,118-49.1,65,65,0,0,0-4.05-13.89l0-.1a65.5,65.5,0,0,0-120.95,50.32Z"/><path class="cls-2" d="M1175.85,251.78a18,18,0,0,1-8.72,2.69,8.77,8.77,0,0,0,11,1.67h0a8.77,8.77,0,0,0,3.75-10.5A18,18,0,0,1,1175.85,251.78Z"/><path class="cls-2" d="M1168.25,239.56a26.85,26.85,0,0,1-14.48,3.79c.09.15.16.3.25.45a14.39,14.39,0,0,0,19.8,4.71h0a14.39,14.39,0,0,0,4.7-19.8l-.06-.09A26.9,26.9,0,0,1,1168.25,239.56Z"/><path class="cls-2" d="M1156.38,219.66a41.21,41.21,0,0,1-23.28,5.79,23.42,23.42,0,0,0,1.41,2.78h0a23.17,23.17,0,0,0,31.77,8h0a23.16,23.16,0,0,0,8-31.76h0a24.3,24.3,0,0,0-1.78-2.56A41.18,41.18,0,0,1,1156.38,219.66Z"/><path class="cls-2" d="M1137.13,187.41a64.16,64.16,0,0,1-37.49,8.94,37.65,37.65,0,0,0,3.26,7h0a37.56,37.56,0,0,0,51.5,13h0a37.55,37.55,0,0,0,13-51.5h0a38.29,38.29,0,0,0-4.62-6.2A64.25,64.25,0,0,1,1137.13,187.41Z"/><path class="cls-2" d="M1152.87,102.82l0-.09a56.61,56.61,0,0,0-7.59-10,102.15,102.15,0,0,1-95.3,56.88,57.17,57.17,0,0,0,5.21,11.43l0,.08a56.88,56.88,0,0,0,97.68-58.29Z"/><path class="cls-2" d="M1554.26,1870.77a25.53,25.53,0,0,1-12.81-.34,12.34,12.34,0,0,0,13.91,7.18h0a12.33,12.33,0,0,0,9.72-12.29A25.33,25.33,0,0,1,1554.26,1870.77Z"/><path class="cls-2" d="M1549.66,1851.08a37.71,37.71,0,0,1-21-1.47c0,.24.07.48.12.71A20.21,20.21,0,0,0,1553,1865.5h0a20.22,20.22,0,0,0,15.18-24.23.75.75,0,0,0,0-.16A37.64,37.64,0,0,1,1549.66,1851.08Z"/><path class="cls-2" d="M1542.82,1819.26a57.84,57.84,0,0,1-33.58-2.78,32.48,32.48,0,0,0,.62,4.33h0a32.53,32.53,0,0,0,38.65,25h0a32.53,32.53,0,0,0,25-38.65h0a32.36,32.36,0,0,0-1.21-4.21A57.76,57.76,0,0,1,1542.82,1819.26Z"/><path class="cls-2" d="M1531.73,1767.68a90.21,90.21,0,0,1-53.91-5,53.1,53.1,0,0,0,1.18,10.78h0a52.78,52.78,0,0,0,62.68,40.5h0a52.76,52.76,0,0,0,40.49-62.68h0a52.79,52.79,0,0,0-3.35-10.32A90.16,90.16,0,0,1,1531.73,1767.68Z"/><path class="cls-2" d="M1590.77,1662.2l0-.14a79.63,79.63,0,0,0-5.58-16.73,143.57,143.57,0,0,1-152.43,32.77,79.83,79.83,0,0,0,1.79,17.55l0,.14a79.9,79.9,0,1,0,156.22-33.59Z"/><path class="cls-2" d="M1237.07,350.4a27.59,27.59,0,0,1-.4,13.83,13.31,13.31,0,0,0,7.79-15h0a13.31,13.31,0,0,0-13.24-10.54A27.64,27.64,0,0,1,1237.07,350.4Z"/><path class="cls-2" d="M1215.8,355.32a40.75,40.75,0,0,1-1.64,22.64l.77-.13a21.84,21.84,0,0,0,16.45-26.13h0a21.83,21.83,0,0,0-26.12-16.46l-.17.05A40.71,40.71,0,0,1,1215.8,355.32Z"/><path class="cls-2" d="M1181.43,362.62a62.47,62.47,0,0,1-3.1,36.25,34.47,34.47,0,0,0,4.68-.67h0a35.13,35.13,0,0,0,27.07-41.67h0a35.14,35.14,0,0,0-41.67-27.07h0a35.53,35.53,0,0,0-4.55,1.29A62.42,62.42,0,0,1,1181.43,362.62Z"/><path class="cls-2" d="M1125.71,374.45a97.43,97.43,0,0,1-5.53,58.19,57.5,57.5,0,0,0,11.65-1.25h0a57,57,0,0,0,43.89-67.55h0a57,57,0,0,0-67.56-43.89h0a57.65,57.65,0,0,0-11.15,3.59A97.47,97.47,0,0,1,1125.71,374.45Z"/><path class="cls-2" d="M1012,310.41l-.15,0a86,86,0,0,0-18.08,6,154.95,154.95,0,0,1,35,164.66,85.84,85.84,0,0,0,19-1.88l.15,0A86.27,86.27,0,1,0,1012,310.41Z"/><path class="cls-2" d="M354.76,960.23a27.52,27.52,0,0,1-13.84.12,13.31,13.31,0,0,0,15.28,7.22h0a13.32,13.32,0,0,0,10-13.63A27.43,27.43,0,0,1,354.76,960.23Z"/><path class="cls-2" d="M349,939.16a40.75,40.75,0,0,1-22.69-.78c.06.25.1.51.17.76a21.81,21.81,0,0,0,26.72,15.45h0a21.81,21.81,0,0,0,15.45-26.72,1.09,1.09,0,0,0-.05-.17A40.7,40.7,0,0,1,349,939.16Z"/><path class="cls-2" d="M340.45,905.09a62.38,62.38,0,0,1-36.34-1.73A36.51,36.51,0,0,0,305,908h0a35.13,35.13,0,0,0,42.66,25.48h0a35.13,35.13,0,0,0,25.48-42.66h0a35.33,35.33,0,0,0-1.47-4.5A62.39,62.39,0,0,1,340.45,905.09Z"/><path class="cls-2" d="M326.52,849.86a97.44,97.44,0,0,1-58.35-3.33,57.48,57.48,0,0,0,1.68,11.59h0A57,57,0,0,0,339,899.43h0a57,57,0,0,0,41.31-69.16h0a56.59,56.59,0,0,0-4-11A97.46,97.46,0,0,1,326.52,849.86Z"/><path class="cls-2" d="M386.22,733.8l0-.15a86.73,86.73,0,0,0-6.67-17.85A155,155,0,0,1,216.3,757a86.19,86.19,0,0,0,2.59,18.87l0,.15A86.26,86.26,0,0,0,386.22,733.8Z"/><path class="cls-2" d="M1804.43,1365.51a31.38,31.38,0,0,1-14.17-7.09,15.23,15.23,0,0,0,11.82,15.32h0a15.24,15.24,0,0,0,17.33-8.67A31.5,31.5,0,0,1,1804.43,1365.51Z"/><path class="cls-2" d="M1809.58,1341a46.78,46.78,0,0,1-22.73-12.63c-.07.29-.17.57-.23.86a25,25,0,0,0,19.2,29.7h0a25,25,0,0,0,29.7-19.21l0-.19A46.68,46.68,0,0,1,1809.58,1341Z"/><path class="cls-2" d="M1818.58,1301.8a71.54,71.54,0,0,1-36.17-20.7,41.46,41.46,0,0,0-1.57,5.18h0a40.25,40.25,0,0,0,30.23,48.23h0a40.25,40.25,0,0,0,48.23-30.24h0a41.73,41.73,0,0,0,.85-5.36A71.47,71.47,0,0,1,1818.58,1301.8Z"/><path class="cls-2" d="M1833.16,1238.2a111.53,111.53,0,0,1-57.79-33.82,66.05,66.05,0,0,0-4.32,12.71h0a65.25,65.25,0,0,0,49,78.19h0a65.24,65.24,0,0,0,78.18-49h0a65,65,0,0,0,1.65-13.32A111.59,111.59,0,0,1,1833.16,1238.2Z"/><path class="cls-2" d="M1954.56,1150.93l0-.17a99,99,0,0,0,2.5-21.67A177.53,177.53,0,0,1,1769.15,1086a99.31,99.31,0,0,0-7.19,20.61l0,.17a98.82,98.82,0,0,0,192.64,44.17Z"/><path class="cls-2" d="M507.86,557.19a27.34,27.34,0,0,1-11-8.34,13.3,13.3,0,0,0,7.69,15h0a13.32,13.32,0,0,0,16.26-4.68A27.36,27.36,0,0,1,507.86,557.19Z"/><path class="cls-2" d="M516.18,537a40.64,40.64,0,0,1-17.48-14.46c-.11.23-.24.46-.34.7A21.83,21.83,0,0,0,510.1,551.8h0a21.83,21.83,0,0,0,28.56-11.73,1.15,1.15,0,0,1,.06-.17A40.66,40.66,0,0,1,516.18,537Z"/><path class="cls-2" d="M530.18,504.78a62.34,62.34,0,0,1-27.73-23.55,35.45,35.45,0,0,0-2.18,4.2h0a35.13,35.13,0,0,0,18.24,46.22h0a35.14,35.14,0,0,0,46.22-18.24h0a34.37,34.37,0,0,0,1.58-4.46A62.39,62.39,0,0,1,530.18,504.78Z"/><path class="cls-2" d="M552.85,452.52a97.29,97.29,0,0,1-44.19-38.25,56.77,56.77,0,0,0-5.74,10.22h0a57,57,0,0,0,29.57,74.93h0a57,57,0,0,0,74.93-29.58h0A56.76,56.76,0,0,0,611,458.68,97.34,97.34,0,0,1,552.85,452.52Z"/><path class="cls-2" d="M671,397l.06-.14a86.32,86.32,0,0,0,5.61-18.2,155,155,0,0,1-154.42-67,85.93,85.93,0,0,0-9.46,16.54l-.06.14A86.26,86.26,0,0,0,671,397Z"/><path class="cls-2" d="M571.88-56.58a35.57,35.57,0,0,1,13-12.24,17.2,17.2,0,0,0-20.85,6.53h0a17.22,17.22,0,0,0,2.41,21.75A35.65,35.65,0,0,1,571.88-56.58Z"/><path class="cls-2" d="M595.79-41.55a52.56,52.56,0,0,1,22.26-19.14c-.28-.19-.53-.4-.82-.58a28.23,28.23,0,0,0-39,8.73h0a28.23,28.23,0,0,0,8.73,39l.2.11A52.64,52.64,0,0,1,595.79-41.55Z"/><path class="cls-2" d="M633.83-16.68A80.83,80.83,0,0,1,669.9-46.9,46.55,46.55,0,0,0,665-50.59h0a45.43,45.43,0,0,0-62.9,13.17h0a45.44,45.44,0,0,0,13.17,62.9h0a44.71,44.71,0,0,0,5.34,3A80.69,80.69,0,0,1,633.83-16.68Z"/><path class="cls-2" d="M695.5,23.63a126,126,0,0,1,58.41-48,74.38,74.38,0,0,0-11.77-9.55h0a73.68,73.68,0,0,0-102,21.35h0a73.67,73.67,0,0,0,21.35,102h0a74.22,74.22,0,0,0,13.47,7A125.87,125.87,0,0,1,695.5,23.63Z"/><path class="cls-2" d="M740.47,186.34l.17.11a111.47,111.47,0,0,0,22,11.12A200.44,200.44,0,0,1,881.76,15.34a111.78,111.78,0,0,0-19-15.67l-.17-.11A111.58,111.58,0,0,0,740.47,186.34Z"/><path class="cls-2" d="M1106.56,584a27.38,27.38,0,0,1,12.9,5,13.29,13.29,0,0,0-11.52-12.35h0a13.31,13.31,0,0,0-14.36,9A27.43,27.43,0,0,1,1106.56,584Z"/><path class="cls-2" d="M1104.08,605.69a40.67,40.67,0,0,1,20.79,9.12c0-.26.1-.51.13-.77a21.83,21.83,0,0,0-19.11-24.24h0a21.83,21.83,0,0,0-24.25,19.11,1,1,0,0,1,0,.17A40.67,40.67,0,0,1,1104.08,605.69Z"/><path class="cls-2" d="M1099.46,640.52a62.44,62.44,0,0,1,33.12,15.05,35,35,0,0,0,.94-4.64h0a35.15,35.15,0,0,0-30.21-39.46h0a35.14,35.14,0,0,0-39.45,30.21h0a35.83,35.83,0,0,0-.3,4.72A62.43,62.43,0,0,1,1099.46,640.52Z"/><path class="cls-2" d="M1092,697a97.37,97.37,0,0,1,53,24.68,57.64,57.64,0,0,0,2.72-11.4h0a57,57,0,0,0-49-64h0a57,57,0,0,0-64,49h0a57.62,57.62,0,0,0-.34,11.71A97.35,97.35,0,0,1,1092,697Z"/><path class="cls-2" d="M993.56,782.73l0,.15a86,86,0,0,0-.41,19A155,155,0,0,1,1160,824.07a85.94,85.94,0,0,0,4.57-18.49l0-.15a86.26,86.26,0,1,0-171-22.7Z"/><path class="cls-2" d="M215,139.66a23.3,23.3,0,0,1-9.84,6.36,11.27,11.27,0,0,0,14.2-1.77h0a11.26,11.26,0,0,0,1-14.29A23.42,23.42,0,0,1,215,139.66Z"/><path class="cls-2" d="M201.32,127.19a34.43,34.43,0,0,1-16.58,9.72c.16.16.3.32.47.47a18.48,18.48,0,0,0,26.12-1.07h0a18.48,18.48,0,0,0-1.07-26.12l-.11-.1A34.51,34.51,0,0,1,201.32,127.19Z"/><path class="cls-2" d="M179.72,106.71A52.81,52.81,0,0,1,153,122a31.14,31.14,0,0,0,2.71,2.94h0a29.75,29.75,0,0,0,42.06-1.14h0a29.74,29.74,0,0,0-1.13-42.06h0a29.43,29.43,0,0,0-3.08-2.54A52.78,52.78,0,0,1,179.72,106.71Z"/><path class="cls-2" d="M144.7,73.53a82.38,82.38,0,0,1-43.24,24.1,48.67,48.67,0,0,0,6.47,7.53h0a48.25,48.25,0,0,0,68.2-1.84h0a48.24,48.24,0,0,0-1.83-68.2h0a49,49,0,0,0-7.87-6.05A82.37,82.37,0,0,1,144.7,73.53Z"/><path class="cls-2" d="M134.74-36.55l-.09-.09a73.62,73.62,0,0,0-12.86-9.74A130.17,130.17,0,0,1,88,19.84a130.14,130.14,0,0,1-64.3,37.27A73.28,73.28,0,0,0,34.15,69.43l.09.09A73.06,73.06,0,0,0,134.74-36.55Z"/><path class="cls-2" d="M617.41,1156.08a12.26,12.26,0,0,1-5.91,1.82A6,6,0,0,0,619,1159h0a6,6,0,0,0,2.55-7.14A12.25,12.25,0,0,1,617.41,1156.08Z"/><path class="cls-2" d="M612.25,1147.78a18.19,18.19,0,0,1-9.82,2.57c.05.1.1.21.16.31a9.78,9.78,0,0,0,13.45,3.19h0a9.75,9.75,0,0,0,3.19-13.44.43.43,0,0,0,0-.07A18.21,18.21,0,0,1,612.25,1147.78Z"/><path class="cls-2" d="M604.19,1134.27a28,28,0,0,1-15.8,3.93,14.48,14.48,0,0,0,1,1.88h0a15.72,15.72,0,0,0,21.56,5.44h0a15.72,15.72,0,0,0,5.45-21.56h0a16.65,16.65,0,0,0-1.21-1.73A27.94,27.94,0,0,1,604.19,1134.27Z"/><path class="cls-2" d="M591.12,1112.38a43.58,43.58,0,0,1-25.45,6.06,26,26,0,0,0,2.22,4.76h0a25.51,25.51,0,0,0,35,8.83h0a25.5,25.5,0,0,0,8.83-35h0a25.91,25.91,0,0,0-3.13-4.2A43.63,43.63,0,0,1,591.12,1112.38Z"/><path class="cls-2" d="M601.81,1054.94l0-.06a38.78,38.78,0,0,0-5.15-6.79,69.39,69.39,0,0,1-64.7,38.61,38.23,38.23,0,0,0,3.53,7.76l0,.06a38.61,38.61,0,1,0,66.31-39.58Z"/><path class="cls-2" d="M349.47,1795.55a25.33,25.33,0,0,1,8.12-9.86,12.29,12.29,0,0,0-14.17,6.53h0a12.29,12.29,0,0,0,3.7,15.18A25.36,25.36,0,0,1,349.47,1795.55Z"/><path class="cls-2" d="M367.77,1804a37.64,37.64,0,0,1,14-15.59l-.63-.34a20.17,20.17,0,0,0-26.79,9.75h0a20.15,20.15,0,0,0,9.75,26.79l.14.06A37.63,37.63,0,0,1,367.77,1804Z"/><path class="cls-2" d="M397,1818.13a57.63,57.63,0,0,1,22.77-24.7,32.62,32.62,0,0,0-3.79-2.16h0a32.45,32.45,0,0,0-43.34,15.09h0a32.44,32.44,0,0,0,15.08,43.33h0a33.26,33.26,0,0,0,4,1.63A57.64,57.64,0,0,1,397,1818.13Z"/><path class="cls-2" d="M444.35,1841a89.91,89.91,0,0,1,37-39.33,52.94,52.94,0,0,0-9.21-5.68h0a52.62,52.62,0,0,0-70.27,24.45h0a52.6,52.6,0,0,0,24.46,70.26h0a52.44,52.44,0,0,0,10.17,3.69A89.9,89.9,0,0,1,444.35,1841Z"/><path class="cls-2" d="M491.09,1952.13l.13.06a79.22,79.22,0,0,0,16.58,5.87,143.12,143.12,0,0,1,67.68-140,79.71,79.71,0,0,0-14.89-9.36l-.13-.06a79.67,79.67,0,1,0-69.37,143.44Z"/><path class="cls-2" d="M1302.11,1534a12.42,12.42,0,0,1,2.56-5.64,6,6,0,0,0-5.81,4.84h0a6,6,0,0,0,3.64,6.64A12.44,12.44,0,0,1,1302.11,1534Z"/><path class="cls-2" d="M1311.74,1535.66a18.28,18.28,0,0,1,4.6-9.06l-.34-.08a9.77,9.77,0,0,0-11.31,7.94h0a9.76,9.76,0,0,0,7.93,11.31h.08A18.19,18.19,0,0,1,1311.74,1535.66Z"/><path class="cls-2" d="M1327.2,1538.6a28,28,0,0,1,7.55-14.43,15,15,0,0,0-2-.53h0a15.72,15.72,0,0,0-18.39,12.51h0a15.74,15.74,0,0,0,12.51,18.39h0a16.7,16.7,0,0,0,2.1.25A27.89,27.89,0,0,1,1327.2,1538.6Z"/><path class="cls-2" d="M1352.24,1543.36a43.64,43.64,0,0,1,12.36-23.06,25.34,25.34,0,0,0-5-1.5h0a25.5,25.5,0,0,0-29.82,20.29h0a25.5,25.5,0,0,0,20.29,29.81h0a25.12,25.12,0,0,0,5.22.45A43.68,43.68,0,0,1,1352.24,1543.36Z"/><path class="cls-2" d="M1388.1,1589.49h.07a39.12,39.12,0,0,0,8.5.66,69.37,69.37,0,0,1,14.07-74,39,39,0,0,0-8.15-2.51h-.06a38.62,38.62,0,1,0-14.43,75.87Z"/><path class="cls-2" d="M147.31,479.38a12.43,12.43,0,0,1,2.56-5.63,5.94,5.94,0,0,0-5.81,4.84h0a6,6,0,0,0,3.64,6.64A12.49,12.49,0,0,1,147.31,479.38Z"/><path class="cls-2" d="M156.94,481a18.2,18.2,0,0,1,4.6-9.06l-.34-.08a9.76,9.76,0,0,0-11.31,7.93h0a9.76,9.76,0,0,0,7.93,11.31h.08A18.21,18.21,0,0,1,156.94,481Z"/><path class="cls-2" d="M172.4,484A28,28,0,0,1,180,469.55a16.64,16.64,0,0,0-2-.54h0a15.73,15.73,0,0,0-18.39,12.51h0A15.73,15.73,0,0,0,172,499.91h0a13.67,13.67,0,0,0,2.1.25A27.86,27.86,0,0,1,172.4,484Z"/><path class="cls-2" d="M197.45,488.74a43.52,43.52,0,0,1,12.35-23.06,26,26,0,0,0-5-1.51h0A25.51,25.51,0,0,0,175,484.46h0a25.5,25.5,0,0,0,20.29,29.82h0a25.84,25.84,0,0,0,5.23.44A43.48,43.48,0,0,1,197.45,488.74Z"/><path class="cls-2" d="M233.3,534.86h.07a37.91,37.91,0,0,0,8.5.66,69.38,69.38,0,0,1,14.07-74,38.43,38.43,0,0,0-8.15-2.5l-.06,0a38.62,38.62,0,0,0-14.43,75.87Z"/><path class="cls-2" d="M1902.77,1585.19a19.32,19.32,0,0,1,.39,9.73,9.36,9.36,0,0,0,4.74-10.91h0a9.36,9.36,0,0,0-9.8-6.76A19.23,19.23,0,0,1,1902.77,1585.19Z"/><path class="cls-2" d="M1888.07,1589.67a28.64,28.64,0,0,1-.06,16c.17-.05.35-.08.53-.14a15.36,15.36,0,0,0,10.3-19.13h0a15.37,15.37,0,0,0-19.14-10.3l-.12,0A28.66,28.66,0,0,1,1888.07,1589.67Z"/><path class="cls-2" d="M1864.28,1596.44a44,44,0,0,1-.44,25.61,23.37,23.37,0,0,0,3.26-.69h0a24.74,24.74,0,0,0,17-30.57h0a24.74,24.74,0,0,0-30.57-17h0a25.3,25.3,0,0,0-3.13,1.13A44,44,0,0,1,1864.28,1596.44Z"/><path class="cls-2" d="M1825.71,1607.44a68.59,68.59,0,0,1-1.09,41.13,40,40,0,0,0,8.13-1.43h0a40.11,40.11,0,0,0,27.58-49.56h0a40.1,40.1,0,0,0-49.56-27.58h0a40.15,40.15,0,0,0-7.66,3.06A68.53,68.53,0,0,1,1825.71,1607.44Z"/><path class="cls-2" d="M1742.75,1567.92l-.1,0a61.15,61.15,0,0,0-12.42,5.08,109.12,109.12,0,0,1,32.48,114,60,60,0,0,0,13.22-2.23l.11,0a60.74,60.74,0,0,0-33.29-116.82Z"/><path class="cls-2" d="M1158.27,1821.24a10.52,10.52,0,0,1-1.93-5,5.15,5.15,0,0,0-.53,6.51h0a5.16,5.16,0,0,0,6.3,1.77A10.71,10.71,0,0,1,1158.27,1821.24Z"/><path class="cls-2" d="M1165.11,1816.31a15.84,15.84,0,0,1-2.8-8.32l-.25.16a8.45,8.45,0,0,0-2,11.78h0a8.44,8.44,0,0,0,11.77,2l0,0A15.83,15.83,0,0,1,1165.11,1816.31Z"/><path class="cls-2" d="M1176.27,1808.56a24.11,24.11,0,0,1-4.32-13.38,13.21,13.21,0,0,0-1.57.93h0A13.58,13.58,0,0,0,1167,1815h0a13.58,13.58,0,0,0,18.9,3.41h0a12.33,12.33,0,0,0,1.43-1.14A24.16,24.16,0,0,1,1176.27,1808.56Z"/><path class="cls-2" d="M1194.36,1796a37.68,37.68,0,0,1-6.75-21.57,22.36,22.36,0,0,0-4,2.19h0a22,22,0,0,0-5.53,30.65h0a22,22,0,0,0,30.64,5.53h0a22.35,22.35,0,0,0,3.44-3A37.75,37.75,0,0,1,1194.36,1796Z"/><path class="cls-2" d="M1244.48,1801.79l0,0a33.23,33.23,0,0,0,5.55-4.84,59.89,59.89,0,0,1-37.12-53.45,33.56,33.56,0,0,0-6.48,3.51l0,0a33.35,33.35,0,0,0,38,54.78Z"/><path class="cls-2" d="M233.72,1472.06a24.18,24.18,0,0,1-2.2-12,11.74,11.74,0,0,0-4,14.37h0a11.74,11.74,0,0,0,13.36,6.64A24,24,0,0,1,233.72,1472.06Z"/><path class="cls-2" d="M251.15,1463.9a35.8,35.8,0,0,1-2.75-19.82c-.21.09-.43.16-.64.26a19.25,19.25,0,0,0-9.38,25.55h0a19.24,19.24,0,0,0,25.55,9.37l.14-.07A35.84,35.84,0,0,1,251.15,1463.9Z"/><path class="cls-2" d="M279.45,1451.28a55,55,0,0,1-4-31.82,29.2,29.2,0,0,0-3.91,1.43h0a31,31,0,0,0-15.67,40.92h0a31,31,0,0,0,40.91,15.67h0a30.67,30.67,0,0,0,3.68-2A55.12,55.12,0,0,1,279.45,1451.28Z"/><path class="cls-2" d="M325.31,1430.81a85.83,85.83,0,0,1-5.94-51.19,49.94,49.94,0,0,0-9.82,3.23h0a50.23,50.23,0,0,0-25.41,66.33h0a50.23,50.23,0,0,0,66.33,25.4h0a50.81,50.81,0,0,0,9-5.15A85.94,85.94,0,0,1,325.31,1430.81Z"/><path class="cls-2" d="M435.17,1465.09l.12,0a75.6,75.6,0,0,0,14.49-8.5A136.64,136.64,0,0,1,389.31,1321a76.06,76.06,0,0,0-16,5.11l-.12.06a76.06,76.06,0,1,0,62,138.92Z"/><path class="cls-2" d="M888.23,1806.1a27.57,27.57,0,0,1-7.9,11.43,13.35,13.35,0,0,0,14.76-8.38h0a13.36,13.36,0,0,0-5.4-16.12A27.57,27.57,0,0,1,888.23,1806.1Z"/><path class="cls-2" d="M867.61,1798.61a40.9,40.9,0,0,1-13.76,18.19c.24.1.47.22.71.31a21.94,21.94,0,0,0,28.16-13h0a21.93,21.93,0,0,0-13-28.15l-.16-.05A41,41,0,0,1,867.61,1798.61Z"/><path class="cls-2" d="M834.64,1786a62.7,62.7,0,0,1-22.44,28.87,36.8,36.8,0,0,0,4.31,2h0a35.31,35.31,0,0,0,45.61-20.33h0a35.3,35.3,0,0,0-20.33-45.6h0a36.4,36.4,0,0,0-4.54-1.39A62.79,62.79,0,0,1,834.64,1786Z"/><path class="cls-2" d="M781.18,1765.48a97.83,97.83,0,0,1-36.47,46,57.46,57.46,0,0,0,10.5,5.32h0a57.26,57.26,0,0,0,73.95-33h0a57.24,57.24,0,0,0-33-73.94h0a57.42,57.42,0,0,0-11.37-3.07A97.82,97.82,0,0,1,781.18,1765.48Z"/><path class="cls-2" d="M720.31,1649.31l-.14-.06a86.36,86.36,0,0,0-18.52-4.84,155.74,155.74,0,0,1-60.55,157.95,86.66,86.66,0,0,0,17,8.78l.14.06a86.69,86.69,0,1,0,62.06-161.89Z"/><path class="cls-2" d="M-1.44,806.89l-90,23.25,23.25,90A92.92,92.92,0,1,0-1.44,806.89Z"/><path class="cls-2" d="M-73.42,814l71.89-18.58c9.64-2.49,29.11-5.15,46.7.19,0,0-19-39.17-120-26.11Z"/><path class="cls-2" d="M-39.88,729.65l-12.51,26.56s52-.78,66.05,4.68C13.66,760.89,1.64,744.23-39.88,729.65Z"/><path class="cls-2" d="M426.33,1037.87l-30.56-10.65-10.65,30.55a32.36,32.36,0,1,0,41.21-19.9Z"/><path class="cls-2" d="M404.1,1026l24.42,8.51c3.27,1.15,9.43,4.14,13.49,9.08,0,0,2.06-15-29.72-30.76Z"/><path class="cls-2" d="M430.12,1008.06l-8.75,5.27s15.21,9.83,18.23,14.12C439.6,1027.45,439.34,1020.3,430.12,1008.06Z"/><path class="cls-2" d="M1575.85,1541.28,1553,1518.4l-22.88,22.88a32.36,32.36,0,1,0,45.76,0Z"/><path class="cls-2" d="M1561,1520.94l18.29,18.29c2.45,2.45,6.69,7.82,8.2,14,0,0,8.39-12.63-13.39-40.63Z"/><path class="cls-2" d="M1592.23,1516.08l-10.18,1s9.43,15.46,10.28,20.64C1592.33,1537.67,1595.2,1531.12,1592.23,1516.08Z"/><path class="cls-2" d="M1292.94,1167.13l-30.56-10.65L1251.73,1187a32.36,32.36,0,1,0,41.21-19.9Z"/><path class="cls-2" d="M1270.71,1155.28l24.42,8.51c3.27,1.15,9.43,4.14,13.49,9.08,0,0,2.06-15-29.72-30.76Z"/><path class="cls-2" d="M1296.73,1137.32l-8.75,5.28s15.21,9.82,18.23,14.12C1306.21,1156.72,1306,1149.57,1296.73,1137.32Z"/><path class="cls-2" d="M1664.57,1133.62l-31.64,6.77,6.77,31.65a32.36,32.36,0,1,0,24.87-38.42Z"/><path class="cls-2" d="M1639.42,1135.05l25.29-5.42c3.39-.72,10.21-1.36,16.25.75,0,0-6-13.9-41.38-10.84Z"/><path class="cls-2" d="M1652.33,1106.18l-4.74,9.06s18.1.48,22.91,2.59C1670.5,1117.83,1666.56,1111.86,1652.33,1106.18Z"/><path class="cls-2" d="M1285.5,882.47l21.33,24.34,24.34-21.33a32.36,32.36,0,1,0-45.67-3Z"/><path class="cls-2" d="M1299,903.74l-17-19.45c-2.29-2.61-6.17-8.25-7.26-14.55,0,0-9.2,12,10.69,41.42Z"/><path class="cls-2" d="M1267.5,906.53l10.22-.27s-8.39-16-8.89-21.27C1268.83,885,1265.53,891.33,1267.5,906.53Z"/><path class="cls-2" d="M1189.78,513.54l-31.65,6.77,6.78,31.65a32.36,32.36,0,1,0,24.87-38.42Z"/><path class="cls-2" d="M1164.62,515l25.29-5.41c3.39-.73,10.21-1.37,16.25.74,0,0-6-13.9-41.38-10.84Z"/><path class="cls-2" d="M1177.53,486.1l-4.74,9.06s18.1.48,22.91,2.59C1195.7,497.75,1191.77,491.78,1177.53,486.1Z"/><path class="cls-2" d="M1782.73,812.62l-29.12-14.13-14.12,29.12a32.36,32.36,0,1,0,43.24-15Z"/><path class="cls-2" d="M1762,798.27l23.27,11.29c3.12,1.51,8.88,5.2,12.35,10.59,0,0,3.79-14.69-26-34Z"/><path class="cls-2" d="M1790,783.45l-9.31,4.22s14,11.52,16.47,16.15C1797.11,803.82,1797.68,796.68,1790,783.45Z"/><path class="cls-2" d="M404.24,181.24l-60,12.84,12.83,60a61.32,61.32,0,1,0,47.13-72.8Z"/><path class="cls-2" d="M356.58,184,404.5,173.7c6.42-1.38,19.34-2.59,30.79,1.41,0,0-11.46-26.35-78.42-20.54Z"/><path class="cls-2" d="M381,129.25l-9,17.16s34.3.93,43.42,4.92C415.47,151.33,408,140,381,129.25Z"/><path class="cls-2" d="M961.28,134.26l-22.52-30.84-30.84,22.52a38.19,38.19,0,1,0,53.36,8.32Z"/><path class="cls-2" d="M947.64,107.84l18,24.65c2.41,3.3,6.38,10.34,7,17.87,0,0,12.08-13.21-8.23-49.81Z"/><path class="cls-2" d="M985,107.86l-12-.75s8.18,19.74,8.23,25.94C981.15,133.05,985.69,125.93,985,107.86Z"/><path class="cls-2" d="M117.86,701.46,171.27,729l27.53-53.41a60.09,60.09,0,1,0-80.94,25.88Z"/><path class="cls-2" d="M155.66,729,113,707c-5.72-2.95-16.26-10-22.45-20.2,0,0-7.69,27.08,46.65,64.28Z"/><path class="cls-2" d="M103.14,755.27l17.47-7.42s-25.41-22-29.84-30.7C90.77,717.15,89.39,730.36,103.14,755.27Z"/><path class="cls-2" d="M1341.32,1732.15l32.35-1-1-32.35a32.36,32.36,0,1,0-31.34,33.36Z"/><path class="cls-2" d="M1366.33,1735.23l-25.85.81c-3.47.11-10.29-.48-15.86-3.64,0,0,3.46,14.76,38.78,18.06Z"/><path class="cls-2" d="M1348.47,1761.33l6.28-8.06s-17.72-3.72-22.08-6.65C1332.67,1746.62,1335.47,1753.2,1348.47,1761.33Z"/><path class="cls-2" d="M981.88,1759.33l33.91,18.27,18.28-33.92a38.53,38.53,0,1,0-52.19,15.65Z"/><path class="cls-2" d="M1005.79,1777.44l-27.11-14.6c-3.63-2-10.31-6.64-14.15-13.22,0,0-5.25,17.27,29.15,41.76Z"/><path class="cls-2" d="M971.81,1793.66l11.29-4.56s-16-14.41-18.78-20C964.32,1769.07,963.28,1777.53,971.81,1793.66Z"/><path class="cls-2" d="M151.35,1857.75l32.25,61.82,61.82-32.26a69.73,69.73,0,1,0-94.07-29.56Z"/><path class="cls-2" d="M168.78,1909.16,143,1859.76c-3.46-6.62-8.71-20.4-7.79-34.17,0,0-25.4,20.55,1.28,92.16Z"/><path class="cls-2" d="M101.41,1899l21.53,4.64s-9.39-37.87-7.78-49.07C115.16,1854.53,105,1866.14,101.41,1899Z"/><path class="cls-2" d="M1929.87,1740.2l-90,23.25,23.25,90a92.92,92.92,0,1,0,66.71-113.21Z"/><path class="cls-2" d="M1857.89,1747.34l71.89-18.58c9.63-2.49,29.11-5.15,46.7.19,0,0-19-39.17-120-26.11Z"/><path class="cls-2" d="M1891.43,1663l-12.51,26.56s52-.78,66,4.68C1945,1694.2,1933,1677.54,1891.43,1663Z"/><path class="cls-2" d="M799.65,626.56l-90,23.25,23.25,90a92.92,92.92,0,1,0,66.71-113.21Z"/><path class="cls-2" d="M727.66,633.7l71.9-18.58c9.63-2.5,29.11-5.16,46.7.18,0,0-19-39.16-120-26.11Z"/><path class="cls-2" d="M761.2,549.32l-12.5,26.56s52-.79,66,4.67C814.74,580.55,802.72,563.89,761.2,549.32Z"/><path class="cls-2" d="M1768.3,387.67l90,23.25-23.25,90a92.92,92.92,0,1,1-66.71-113.21Z"/><path class="cls-2" d="M1840.28,394.81l-71.89-18.58c-9.64-2.49-29.11-5.15-46.7.19,0,0,19-39.17,120-26.11Z"/><path class="cls-2" d="M1806.74,310.43,1819.25,337s-52-.78-66,4.68C1753.2,341.67,1765.22,325,1806.74,310.43Z"/><path class="cls-2" d="M1708.12-37.93l-48.95,79,79,49a92.91,92.91,0,1,0-30-127.93Z"/><path class="cls-2" d="M1661,17l39.12-63.11c5.24-8.46,17.48-23.84,33.88-32.14,0,0-40.81-15.16-104.79,64.07Z"/><path class="cls-2" d="M1627-67.18l9.31,27.84s37-36.49,51-42.27C1687.23-81.61,1667-85.34,1627-67.18Z"/><path class="cls-2" d="M1157,1289.35l-90,23.25,23.25,90A92.92,92.92,0,1,0,1157,1289.35Z"/><path class="cls-2" d="M1085.06,1296.49l71.89-18.58c9.64-2.49,29.11-5.15,46.7.18,0,0-19-39.16-120-26.1Z"/><path class="cls-2" d="M1118.6,1212.11l-12.51,26.56s52-.78,66,4.68C1172.13,1243.35,1160.12,1226.68,1118.6,1212.11Z"/><path class="cls-2" d="M509.79,1586.62l-90,23.25,23.25,90a92.92,92.92,0,1,0,66.71-113.21Z"/><path class="cls-2" d="M437.81,1593.76l71.89-18.58c9.63-2.49,29.11-5.15,46.7.18,0,0-19-39.16-120-26.1Z"/><path class="cls-2" d="M471.35,1509.38l-12.51,26.56s52-.78,66,4.68C524.88,1540.62,512.87,1524,471.35,1509.38Z"/><path class="cls-2" d="M1246.17,1009.06l50.28,43.12-43.12,50.28a66.24,66.24,0,1,1-7.16-93.4Z"/><path class="cls-2" d="M1290,1036.23l-40.19-34.47c-5.38-4.62-17-12.44-29.94-14.54,0,0,24.46-19.1,85,21Z"/><path class="cls-2" d="M1295,971.69l-.33,20.92s-33-16.82-43.74-17.74C1251,974.87,1263.88,968,1295,971.69Z"/><path class="cls-2" d="M594.67,680.5l4.79,66.07-66.07,4.8a66.24,66.24,0,1,1,61.28-70.87Z"/><path class="cls-2" d="M606.25,730.76,602.42,678c-.52-7.08-3.16-20.84-10.77-31.51,0,0,30.79,3.92,45,75.12Z"/><path class="cls-2" d="M655.6,688.87l-15.09,14.5s-11.31-35.29-18.21-43.55C622.3,659.82,636.3,664.14,655.6,688.87Z"/><path class="cls-2" d="M370.79,1185l4.79,66.07-66.06,4.8A66.24,66.24,0,1,1,370.79,1185Z"/><path class="cls-2" d="M382.37,1235.3l-3.83-52.8c-.51-7.08-3.16-20.84-10.77-31.51,0,0,30.79,3.92,45,75.12Z"/><path class="cls-2" d="M431.73,1193.41l-15.09,14.5s-11.32-35.29-18.21-43.55C398.43,1164.36,412.42,1168.68,431.73,1193.41Z"/><path class="cls-2" d="M1521.53,308.4l65.85,7.2-7.2,65.85a66.24,66.24,0,1,1-58.65-73.05Z"/><path class="cls-2" d="M1573.05,306.07l-52.63-5.75c-7.05-.77-21.06-.65-32.93,4.91,0,0,9.41-29.58,82-30.7Z"/><path class="cls-2" d="M1540.74,250l11.55,17.46s-36.76,4.77-46.12,10.06C1506.17,277.49,1512.94,264.51,1540.74,250Z"/><path class="cls-2" d="M1035.16,1906.25l87.23-4.75,4.74,87.24a87.36,87.36,0,1,1-92-82.49Z"/><path class="cls-2" d="M1101.7,1892.18,1032,1896c-9.34.5-27.55,3.66-41.8,13.44,0,0,5.91-40.51,100.13-57.52Z"/><path class="cls-2" d="M1047.65,1826.1l18.76,20.24s-46.81,14.08-57.86,23C1008.55,1869.31,1014.59,1851,1047.65,1826.1Z"/><path class="cls-2" d="M1541.77,803.17h0a97.73,97.73,0,0,0-97.62,97.62h0a58,58,0,0,0,58,58h0a33.51,33.51,0,0,0,33.47-33.47A18.34,18.34,0,0,0,1517.27,907a8.94,8.94,0,0,0-7.19,3.66,8.33,8.33,0,0,1,3.66-.87h0a9.73,9.73,0,0,1,9.71,9.71h0a12,12,0,0,1-12,12h0A15.53,15.53,0,0,1,1495.94,916h0a21.36,21.36,0,0,1,21.33-21.34A30.71,30.71,0,0,1,1548,925.29a45.8,45.8,0,0,1-23,39.65h178.55C1703.55,875.74,1631,803.17,1541.77,803.17Z"/><path class="cls-2" d="M788.74,1615.55h0a72.6,72.6,0,0,0,87.93,52.8h0A43.11,43.11,0,0,0,908,1616.14h0A24.89,24.89,0,0,0,877.88,1598a13.63,13.63,0,0,0-9.91,16.5,6.7,6.7,0,0,0,3.93,4.53,6.37,6.37,0,0,1-1.28-2.48h0a7.23,7.23,0,0,1,5.26-8.75h0a8.92,8.92,0,0,1,10.8,6.48h0a11.56,11.56,0,0,1-8.4,14h0a15.88,15.88,0,0,1-19.22-11.55,22.83,22.83,0,0,1,16.6-27.63,34.06,34.06,0,0,1,32.71,9.41l-32.12-128.7A120.32,120.32,0,0,0,788.74,1615.55Z"/><path class="cls-2" d="M16.24,1668.89h0a89.71,89.71,0,0,0,120.39,39.62h0A53.26,53.26,0,0,0,160.15,1637h0a30.76,30.76,0,0,0-41.27-13.59,16.83,16.83,0,0,0-7.44,22.59,8.22,8.22,0,0,0,6,4.38,7.74,7.74,0,0,1-2.22-2.64h0a8.94,8.94,0,0,1,4-12h0a11,11,0,0,1,14.78,4.87h0a14.26,14.26,0,0,1-6.3,19.14h0a19.61,19.61,0,0,1-26.31-8.66,28.19,28.19,0,0,1,12.45-37.83,42.08,42.08,0,0,1,42,2.41L81.9,1469.4C8.8,1506.3-20.66,1595.79,16.24,1668.89Z"/><path class="cls-2" d="M750.05,1047.88h0a57.49,57.49,0,0,1,75.85,29h0a34.15,34.15,0,0,1-17.22,45h0a19.72,19.72,0,0,1-26-10,10.78,10.78,0,0,1,5.44-14.23,5.26,5.26,0,0,1,4.74.23,4.89,4.89,0,0,0-2.17.42h0a5.72,5.72,0,0,0-2.89,7.55h0a7.06,7.06,0,0,0,9.32,3.56h0a9.13,9.13,0,0,0,4.61-12.06h0a12.56,12.56,0,0,0-16.58-6.34A18.06,18.06,0,0,0,776,1115a26.93,26.93,0,0,0,21.84,15.79L702,1173.59A95.27,95.27,0,0,1,750.05,1047.88Z"/><path class="cls-2" d="M1859.88,1398.8h0a57.49,57.49,0,0,1,76.61-26.94h0a34.14,34.14,0,0,1,16,45.49h0a19.71,19.71,0,0,1-26.27,9.24,10.78,10.78,0,0,1-5.06-14.37,5.3,5.3,0,0,1,3.77-2.89,5,5,0,0,0-1.39,1.72h0a5.72,5.72,0,0,0,2.68,7.63h0a7.07,7.07,0,0,0,9.41-3.31h0a9.16,9.16,0,0,0-4.29-12.19h0a12.56,12.56,0,0,0-16.74,5.89,18.06,18.06,0,0,0,8.47,24.08,27,27,0,0,0,26.87-2.09l-45.43,94.7A95.26,95.26,0,0,1,1859.88,1398.8Z"/><path class="cls-2" d="M1080.74,956.36h0a57.5,57.5,0,0,1-38.58-71.47h0A34.15,34.15,0,0,1,1084.6,862h0a19.72,19.72,0,0,1,13.23,24.51,10.78,10.78,0,0,1-13.41,7.23,5.23,5.23,0,0,1-3.44-3.27,5.1,5.1,0,0,0,1.92,1.11h0a5.71,5.71,0,0,0,7.11-3.84h0a7.06,7.06,0,0,0-4.74-8.77h0a9.14,9.14,0,0,0-11.36,6.13h0a12.56,12.56,0,0,0,8.43,15.62,18.06,18.06,0,0,0,22.45-12.12,27,27,0,0,0-6.25-26.22l100.63,30.08A95.27,95.27,0,0,1,1080.74,956.36Z"/><path class="cls-2" d="M697.24,1863.25h0a29,29,0,0,1,30.57,27.17h0a17.19,17.19,0,0,1-16.13,18.16h0a9.94,9.94,0,0,1-10.49-9.32,5.44,5.44,0,0,1,5.1-5.73,2.65,2.65,0,0,1,2.19,1,2.46,2.46,0,0,0-1.09-.19h0a2.89,2.89,0,0,0-2.71,3h0a3.56,3.56,0,0,0,3.76,3.34h0a4.6,4.6,0,0,0,4.32-4.86h0a6.33,6.33,0,0,0-6.68-5.94,9.1,9.1,0,0,0-8.54,9.61,13.57,13.57,0,0,0,7.48,11.33l-52.81,3.11A48,48,0,0,1,697.24,1863.25Z"/><path class="cls-2" d="M1602.85,152.09h0a40.85,40.85,0,0,0,34.57-46.21h0A24.26,24.26,0,0,0,1610,85.34h0a14,14,0,0,0-11.86,15.85,7.67,7.67,0,0,0,8.67,6.49,3.71,3.71,0,0,0,2.76-2,3.48,3.48,0,0,1-1.46.58h0a4.06,4.06,0,0,1-4.6-3.44h0a5,5,0,0,1,4.25-5.68h0a6.5,6.5,0,0,1,7.35,5.5h0a8.93,8.93,0,0,1-7.56,10.1A12.83,12.83,0,0,1,1593,101.93a19.17,19.17,0,0,1,7.13-17.78l-73.88,10.64A67.7,67.7,0,0,0,1602.85,152.09Z"/><path class="cls-2" d="M1855.73,713.21h0a57.48,57.48,0,0,1-77.06-25.64h0a34.14,34.14,0,0,1,15.22-45.76h0a19.71,19.71,0,0,1,26.42,8.8,10.77,10.77,0,0,1-4.81,14.45,5.24,5.24,0,0,1-4.74,0,5,5,0,0,0,2.15-.5h0a5.73,5.73,0,0,0,2.55-7.67h0a7.06,7.06,0,0,0-9.46-3.15h0a9.13,9.13,0,0,0-4.08,12.25h0a12.57,12.57,0,0,0,16.84,5.61,18.06,18.06,0,0,0,8-24.22,26.93,26.93,0,0,0-22.51-14.81l93.91-47A95.26,95.26,0,0,1,1855.73,713.21Z"/><path class="cls-2" d="M1852.16,945.73h0a56.69,56.69,0,0,1,50,62.56h0A33.66,33.66,0,0,1,1865,1038h0a19.44,19.44,0,0,1-17.15-21.45,10.64,10.64,0,0,1,11.74-9.38,5.18,5.18,0,0,1,3.91,2.57,4.9,4.9,0,0,0-2-.74h0a5.65,5.65,0,0,0-6.23,5h0a7,7,0,0,0,6.15,7.69h0a9,9,0,0,0,9.95-8h0a12.39,12.39,0,0,0-10.93-13.67,17.82,17.82,0,0,0-19.67,15.72,26.61,26.61,0,0,0,10.69,24.34l-103-11.48A94,94,0,0,1,1852.16,945.73Z"/><path class="cls-2" d="M52.66,1284.46h0A57.49,57.49,0,0,1,14.09,1213h0a34.13,34.13,0,0,1,42.44-22.9h0a19.71,19.71,0,0,1,13.22,24.5,10.79,10.79,0,0,1-13.41,7.24,5.26,5.26,0,0,1-3.43-3.27,4.84,4.84,0,0,0,1.91,1.1h0a5.72,5.72,0,0,0,7.11-3.84h0A7.06,7.06,0,0,0,57.2,1207h0a9.15,9.15,0,0,0-11.37,6.14h0a12.57,12.57,0,0,0,8.43,15.62,18.07,18.07,0,0,0,22.46-12.13,26.94,26.94,0,0,0-6.26-26.21l100.63,30.08A95.27,95.27,0,0,1,52.66,1284.46Z"/><path class="cls-2" d="M1475.12,615.14h0a57.5,57.5,0,0,1-38.57-71.47h0a34.13,34.13,0,0,1,42.44-22.9h0a19.71,19.71,0,0,1,13.22,24.5,10.79,10.79,0,0,1-13.41,7.24,5.26,5.26,0,0,1-3.43-3.27,4.84,4.84,0,0,0,1.91,1.1h0a5.73,5.73,0,0,0,7.12-3.84h0a7.07,7.07,0,0,0-4.74-8.78h0a9.15,9.15,0,0,0-11.37,6.14h0a12.57,12.57,0,0,0,8.43,15.62,18.07,18.07,0,0,0,22.46-12.13,27,27,0,0,0-6.25-26.21l100.62,30.08A95.27,95.27,0,0,1,1475.12,615.14Z"/><path class="cls-2" d="M1362.49,402.34h0a57.49,57.49,0,0,1,42.07,69.46h0a34.14,34.14,0,0,1-41.25,25h0A19.72,19.72,0,0,1,1348.88,473a10.79,10.79,0,0,1,13-7.89,5.23,5.23,0,0,1,3.59,3.09,4.87,4.87,0,0,0-2-1h0a5.72,5.72,0,0,0-6.92,4.19h0a7.06,7.06,0,0,0,5.17,8.53h0a9.15,9.15,0,0,0,11-6.69h0a12.57,12.57,0,0,0-9.2-15.18,18.07,18.07,0,0,0-21.83,13.23,27,27,0,0,0,7.55,25.87l-102-25.05A95.27,95.27,0,0,1,1362.49,402.34Z"/><path class="cls-2" d="M646.67,179.27h0a57.5,57.5,0,0,1,42.07,69.47h0a34.14,34.14,0,0,1-41.25,25h0a19.7,19.7,0,0,1-14.43-23.81,10.8,10.8,0,0,1,13-7.9,5.27,5.27,0,0,1,3.59,3.1,5,5,0,0,0-2-1h0a5.72,5.72,0,0,0-6.91,4.19h0a7.06,7.06,0,0,0,5.17,8.53h0a9.14,9.14,0,0,0,11-6.69h0a12.55,12.55,0,0,0-9.19-15.18A18.07,18.07,0,0,0,626,248.16,27,27,0,0,0,633.55,274l-102-25A95.28,95.28,0,0,1,646.67,179.27Z"/><path class="cls-2" d="M315.73,388.38h0a57.48,57.48,0,0,1,78.09-22.29h0a34.14,34.14,0,0,1,13.24,46.37h0a19.71,19.71,0,0,1-26.78,7.64,10.78,10.78,0,0,1-4.18-14.65A5.24,5.24,0,0,1,380,402.8a4.88,4.88,0,0,0-1.49,1.63h0a5.73,5.73,0,0,0,2.22,7.77h0a7.06,7.06,0,0,0,9.59-2.74h0A9.14,9.14,0,0,0,386.81,397h0a12.57,12.57,0,0,0-17.07,4.88,18.07,18.07,0,0,0,7,24.54,27,27,0,0,0,26.94-.47l-51,91.8A95.26,95.26,0,0,1,315.73,388.38Z"/><path class="cls-2" d="M475.57,119.81h0A37.23,37.23,0,0,1,446,76.29h0a22.12,22.12,0,0,1,25.84-17.55h0A12.77,12.77,0,0,1,482,73.66a7,7,0,0,1-8.16,5.55,3.39,3.39,0,0,1-2.43-1.88,3.08,3.08,0,0,0,1.3.58h0A3.71,3.71,0,0,0,477,75h0a4.56,4.56,0,0,0-3.63-5.34h0a5.92,5.92,0,0,0-6.92,4.7h0a8.15,8.15,0,0,0,6.46,9.51,11.71,11.71,0,0,0,13.68-9.29,17.46,17.46,0,0,0-5.76-16.48l66.82,12.77A61.71,61.71,0,0,1,475.57,119.81Z"/><path class="cls-2" d="M1886.33,271.35h0a83.06,83.06,0,0,1-65.91-97.07h0a49.32,49.32,0,0,1,57.64-39.14h0a28.48,28.48,0,0,1,22.6,33.28,15.59,15.59,0,0,1-18.22,12.37,7.59,7.59,0,0,1-5.41-4.2,6.88,6.88,0,0,0,2.91,1.3h0a8.27,8.27,0,0,0,9.66-6.56h0a10.21,10.21,0,0,0-8.1-11.92h0a13.21,13.21,0,0,0-15.43,10.49h0a18.14,18.14,0,0,0,14.4,21.21,26.1,26.1,0,0,0,30.5-20.72,38.92,38.92,0,0,0-12.83-36.76l149,28.49C2033,236.58,1960.8,285.58,1886.33,271.35Z"/><path class="cls-2" d="M-25.7,463.39a74,74,0,0,1,44.2-4,43.08,43.08,0,0,0-2.56-8.52h0a43.24,43.24,0,0,0-56.55-23.32h0A43.25,43.25,0,0,0-63.93,484.1h0a42.89,42.89,0,0,0,4.24,7.82A73.91,73.91,0,0,1-25.7,463.39Z"/><path class="cls-2" d="M-57.6,557.21l0,.11a65.08,65.08,0,0,0,7,12.66A116.62,116.62,0,0,1,1.19,528a116.7,116.7,0,0,1,66.25-7.13,65,65,0,0,0-4-13.89l0-.1a65.57,65.57,0,0,0-85.64-35.31A65.56,65.56,0,0,0-57.6,557.21Z"/><path class="cls-2" d="M-70.13,1740.2l-90,23.25,23.25,90a92.92,92.92,0,0,0,113.21,66.71,92.92,92.92,0,0,0,66.71-113.21A92.92,92.92,0,0,0-70.13,1740.2Z"/><path class="cls-2" d="M-113.67,271.35h0a83.06,83.06,0,0,1-65.91-97.07h0a49.32,49.32,0,0,1,57.64-39.14h0a28.48,28.48,0,0,1,22.6,33.28,15.59,15.59,0,0,1-18.22,12.37,7.59,7.59,0,0,1-5.41-4.2,6.88,6.88,0,0,0,2.91,1.3h0a8.27,8.27,0,0,0,9.66-6.56h0a10.21,10.21,0,0,0-8.1-11.92h0a13.21,13.21,0,0,0-15.43,10.49h0a18.14,18.14,0,0,0,14.4,21.21A26.1,26.1,0,0,0-89,170.39a38.92,38.92,0,0,0-12.83-36.76l149,28.49C33,236.58-39.2,285.58-113.67,271.35Z"/><path class="cls-2" d="M296.43,1.32A16.51,16.51,0,1,0,310.4,31h0L371-6.88,299.9.53h0A17.21,17.21,0,0,0,296.43,1.32Z"/><path class="cls-2" d="M394,21.42A4.08,4.08,0,1,0,401.33,18h0L392,3l1.83,17.55h0A3.71,3.71,0,0,0,394,21.42Z"/><path class="cls-2" d="M305.1,40.82a14.34,14.34,0,0,0,23.09,12.54,14.08,14.08,0,0,0,2.22-2.14h0L369.54,3S320,34.47,314.46,37.6,305.11,40.82,305.1,40.82Z"/><path class="cls-2" d="M344.56,65.1A12.85,12.85,0,0,0,362,60a13.36,13.36,0,0,0,1.06-2.55h0L378,3.89,337.88,53.52A12.85,12.85,0,0,0,344.56,65.1Z"/><path class="cls-2" d="M374.85,54.46a8,8,0,0,0,9.38-6.19,9.15,9.15,0,0,0,.16-1.71h0l-.89-34.38L372,53.23A8,8,0,0,0,374.85,54.46Z"/><path class="cls-2" d="M1035.16-93.75l87.23-4.75,4.74,87.24a87.36,87.36,0,0,1-82.49,92,87.36,87.36,0,0,1-92-82.49A87.35,87.35,0,0,1,1035.16-93.75Z"/></pattern></defs><g id="_2" data-name=" 2"><g id="PATTERN"><rect class="cls-3" width="6699.9" height="2711.3"/></g></g></svg>